<svg width="32" height="40" viewBox="0 0 32 40" fill="none" xmlns="http://www.w3.org/2000/svg">
<path d="M4.31713 27.0161C6.89509 30.8642 10.7951 35.0313 16.0172 39.5172C21.2393 35.0313 25.14 30.8642 27.7192 27.0161C30.2972 23.1693 31.5862 19.6087 31.5862 16.3343C31.5862 11.4227 30.0208 7.50972 26.8902 4.59548C23.7608 1.68124 20.1365 0.224121 16.0172 0.224121C11.8979 0.224121 8.27359 1.68124 5.14423 4.59548C2.01357 7.50972 0.448242 11.4227 0.448242 16.3343C0.448242 19.6087 1.73787 23.1693 4.31713 27.0161ZM10.1788 12.0121V21.8353H14.0711V15.9414H17.9633V21.8353H21.8556V12.0121L16.0172 8.08274L10.1788 12.0121Z" fill="#FCFEFF"/>
<path d="M4.31713 27.0161C6.89509 30.8642 10.7951 35.0313 16.0172 39.5172C21.2393 35.0313 25.14 30.8642 27.7192 27.0161C30.2972 23.1693 31.5862 19.6087 31.5862 16.3343C31.5862 11.4227 30.0208 7.50972 26.8902 4.59548C23.7608 1.68124 20.1365 0.224121 16.0172 0.224121C11.8979 0.224121 8.27359 1.68124 5.14423 4.59548C2.01357 7.50972 0.448242 11.4227 0.448242 16.3343C0.448242 19.6087 1.73787 23.1693 4.31713 27.0161ZM10.1788 12.0121V21.8353H14.0711V15.9414H17.9633V21.8353H21.8556V12.0121L16.0172 8.08274L10.1788 12.0121Z" stroke="#8F947A"/>
</svg>
