<svg width="111" height="111" viewBox="0 0 111 111" fill="none" xmlns="http://www.w3.org/2000/svg">
<path fill-rule="evenodd" clip-rule="evenodd" d="M55.5 0C24.8492 0 0 24.8492 0 55.5C0 86.1508 24.8492 111 55.5 111C86.1508 111 111 86.1508 111 55.5C111 24.8492 86.1508 0 55.5 0ZM39.6429 6.9375C18.8304 11.396 4.13529 34.0659 4.13529 55.5C4.13529 82.066 28.934 106.865 55.5 106.865C82.066 106.865 105.994 82.066 105.994 55.5C105.994 51.8 106.045 45.5893 103.382 42.254L99.0294 49.4059C98.5854 50.0719 98.1588 52.17 95.5471 53.317H94.128C93.499 53.317 92.981 52.799 92.981 52.17V50.172C92.981 45.732 90.021 38.517 85.581 38.517H79.846C77.885 38.517 77.145 40.959 78.292 41.958L79.143 42.661C80.771 44.03 80.438 46.583 78.551 47.545L74.296 49.691H73.001C71.669 49.691 70.559 48.581 70.559 47.249V44.104C70.559 43.105 69.745 42.254 68.709 42.254H68.6868C67.6138 42.254 63.381 42.254 63.381 47.434V49.284C63.381 53.021 69.819 56.018 73.482 56.61C74.074 56.684 74.555 57.202 74.555 57.794V59.126C74.555 59.94 74.37 60.754 74 61.494L66.933 72.039H65.675C64.454 72.039 63.455 73.001 63.418 74.222L63.196 83.176L56.906 89.466C56.166 90.243 55.167 90.65 54.094 90.65H52.281C50.061 90.65 48.285 88.837 48.285 86.654V78.329C48.285 76.257 47.212 75.739 46.435 75.739H45.14C43.808 75.739 42.698 74.629 42.698 73.297V66.933C42.698 63.492 39.923 60.717 36.482 60.717H25.9C22.607 60.717 18.5 54.464 18.5 51.171V48.544C18.5 46.879 19.129 45.288 20.239 44.104L24.198 39.923C25.086 38.998 26.344 38.48 27.639 38.517H31.561C32.708 38.517 33.781 38.073 34.595 37.259L35.779 36.075C36.593 35.261 37.703 34.817 38.85 34.817H42.698C43.549 34.817 44.511 35.261 44.474 36.26V37.296C44.363 39.442 48.544 38.48 48.544 38.48C48.544 38.48 52.096 35.261 53.724 34.891C55.389 34.484 58.719 35.409 60.68 36.593C61.753 37.222 63.085 36.482 63.085 35.261C63.085 32.93 61.161 31.043 58.83 31.043H57.461C56.9802 31.043 56.519 30.852 56.179 30.512C55.839 30.172 55.648 29.7108 55.648 29.23V26.566C55.648 26.2814 55.535 26.0085 55.3337 25.8073C55.1325 25.606 54.8596 25.493 54.575 25.493H53.206C52.429 25.493 51.689 25.863 51.245 26.529L48.951 29.933C48.507 30.636 47.73 31.043 46.879 31.043H46.361C45.177 31.043 44.067 30.599 43.216 29.748L41.588 28.49C40.256 27.38 38.554 27.343 38.221 27.343H34.632C33.892 27.343 33.337 27.935 33.337 28.638L33.189 29.748C33.189 31.08 32.264 32.893 30.932 32.893H28.786C27.454 32.893 26.381 31.82 26.381 30.525V26.085C26.381 24.716 27.491 23.643 28.823 23.643C29.563 23.643 30.118 23.051 30.118 22.348V21.201C30.118 18.278 32.227 17.834 33.781 18.204C34.4433 18.3779 35.1315 18.6702 35.8271 18.9699C36.926 19.4398 38.0471 19.9208 39.109 19.943H44.955C47.138 19.943 48.581 18.463 48.581 16.317C48.581 15.7805 48.6069 15.2218 48.6328 14.6705C48.7475 12.2174 48.8548 9.9086 46.62 10.36L45.584 11.396C44.918 12.099 44.511 13.024 44.511 14.023V14.541C44.511 15.466 43.771 16.28 42.846 16.354C41.958 16.391 40.811 16.243 40.811 15.096C40.811 14.134 40.7814 13.579 40.7555 13.0721C40.7185 12.2951 40.6815 11.655 40.774 9.879C40.8665 8.103 39.6059 4.7138 39.6429 6.9375ZM63.7695 8.1067C61.8882 7.78094 59.9892 7.5672 58.0826 7.4666L59.385 8.769H63.122L63.7658 8.1067H63.7695Z" fill="#383A3C"/>
</svg>
