<svg width="132" height="149" viewBox="0 0 132 149" fill="none" xmlns="http://www.w3.org/2000/svg">
<path fill-rule="evenodd" clip-rule="evenodd" d="M81.9181 6.27219C81.3015 5.98642 80.6691 5.70445 80.0206 5.42731C79.7662 5.31857 79.6632 5.0323 79.7905 4.78791C79.9179 4.54352 80.2274 4.43355 80.4818 4.54229C81.1397 4.82346 81.7814 5.10954 82.407 5.39951C82.6574 5.51561 82.751 5.80508 82.616 6.04606C82.481 6.28705 82.1685 6.38829 81.9181 6.27219ZM83.6002 6.52066C83.7428 6.28336 84.058 6.19105 84.3042 6.3145C84.9432 6.63486 85.5635 6.95851 86.1654 7.28418C86.4071 7.41492 86.4812 7.71009 86.331 7.94345C86.1808 8.17681 85.8631 8.26 85.6215 8.12925C85.0285 7.80841 84.4173 7.48953 83.7877 7.17385C83.5415 7.05041 83.4575 6.75797 83.6002 6.52066ZM78.7805 4.37393C78.6608 4.62146 78.3545 4.73995 78.0964 4.63858C77.4598 4.38858 76.809 4.14367 76.144 3.90468C75.8824 3.81068 75.7611 3.53146 75.8731 3.28103C75.9851 3.0306 76.2879 2.90378 76.5495 2.99778C77.224 3.24016 77.884 3.48857 78.5298 3.74216C78.7879 3.84354 78.9001 4.12639 78.7805 4.37393ZM87.272 8.47194C87.4297 8.24279 87.7496 8.16891 87.9864 8.30692C88.6053 8.6676 89.2022 9.02909 89.7772 9.38968C90.0089 9.53495 90.0628 9.83479 89.8976 10.0594C89.7323 10.284 89.4106 10.3483 89.179 10.2031C88.6127 9.84799 88.0249 9.49198 87.4153 9.13672C87.1784 8.99871 87.1143 8.70108 87.272 8.47194ZM101.71 19.7071C101.66 19.9724 101.393 20.1596 101.113 20.1254L96.5464 19.567C96.2661 19.5327 96.0788 19.2899 96.1281 19.0246C96.1773 18.7593 96.4444 18.572 96.7246 18.6063L100.052 19.0132C100.006 18.8382 100.069 18.6414 100.23 18.513C100.43 18.3544 100.711 18.3539 100.896 18.5007L101.497 15.2599C101.546 14.9946 101.813 14.8073 102.094 14.8416C102.374 14.8758 102.561 15.1187 102.512 15.3839L101.71 19.7071ZM74.8341 2.92453C74.7299 3.1776 74.4307 3.31254 74.166 3.22592C73.5117 3.01185 72.8447 2.80378 72.1647 2.6024C71.897 2.52314 71.7584 2.25178 71.8549 1.9963C71.9515 1.74082 72.2467 1.59797 72.5144 1.67723C73.2038 1.8814 73.8801 2.09237 74.5436 2.30945C74.8083 2.39607 74.9384 2.67145 74.8341 2.92453ZM90.8003 10.6464C90.973 10.4266 91.2963 10.3721 91.5224 10.5246C92.1184 10.9265 92.6869 11.3249 93.2283 11.7176C93.4485 11.8773 93.4811 12.1807 93.301 12.3953C93.1208 12.6098 92.7963 12.6543 92.576 12.4945C92.0434 12.1082 91.4838 11.716 90.8972 11.3205C90.671 11.168 90.6276 10.8662 90.8003 10.6464ZM70.7926 1.69778C70.7037 1.95542 70.4126 2.10596 70.1423 2.03403C69.8036 1.94389 69.4619 1.85546 69.1172 1.7688C68.796 1.68806 68.4753 1.61382 68.155 1.5459C67.8804 1.48766 67.7182 1.2288 67.7927 0.967725C67.8672 0.70665 68.1502 0.542222 68.4248 0.600465C68.7578 0.671095 69.0913 0.74828 69.4251 0.832197C69.7744 0.920029 70.1208 1.00967 70.4641 1.10104C70.7344 1.17298 70.8815 1.44015 70.7926 1.69778ZM94.1552 13.0379C94.3428 12.829 94.6682 12.795 94.8822 12.962C95.4553 13.4095 95.9906 13.8451 96.4886 14.2647C96.6956 14.4392 96.7052 14.745 96.51 14.9478C96.3148 15.1505 95.9888 15.1735 95.7817 14.999C95.2925 14.5868 94.7664 14.1586 94.2029 13.7186C93.9889 13.5516 93.9676 13.2468 94.1552 13.0379ZM66.8202 0.7989C66.7671 1.0637 66.4975 1.24765 66.218 1.20978C65.5601 1.12065 64.9046 1.05698 64.252 1.01724C63.9692 1.00002 63.7652 0.769665 63.7964 0.502728C63.8276 0.235791 64.0822 0.0333584 64.365 0.0505807C65.0437 0.0919138 65.7256 0.158139 66.41 0.250866C66.6896 0.28874 66.8732 0.534103 66.8202 0.7989ZM97.3146 15.6532C97.5177 15.4574 97.8439 15.4463 98.0432 15.6285C98.6101 16.1467 99.108 16.6264 99.538 17.0571C99.7282 17.2477 99.711 17.5544 99.4994 17.7421C99.2878 17.9298 98.9621 17.9275 98.7719 17.7369C98.3515 17.3158 97.8639 16.846 97.3079 16.3377C97.1085 16.1556 97.1116 15.8491 97.3146 15.6532ZM62.8005 0.478458C62.791 0.745929 62.5528 0.965391 62.2685 0.968638C61.6014 0.976255 60.9379 1.0077 60.2784 1.0613C59.9941 1.0844 59.7542 0.887101 59.7425 0.62061C59.7309 0.354118 59.9519 0.119352 60.2361 0.0962452C60.9205 0.0406216 61.6096 0.00795218 62.3027 3.64373e-05C62.5871 -0.00321074 62.81 0.210985 62.8005 0.478458ZM58.7467 0.735524C58.7786 0.999698 58.5752 1.2479 58.2925 1.28991C57.63 1.38833 56.9722 1.50799 56.3197 1.64712C56.0398 1.70682 55.7716 1.54384 55.7208 1.2831C55.6699 1.02235 55.8557 0.76258 56.1356 0.702883C56.8101 0.559053 57.4908 0.435208 58.177 0.333254C58.4598 0.291249 58.7148 0.471352 58.7467 0.735524ZM54.744 1.52221C54.8125 1.77866 54.644 2.04821 54.3678 2.12425C53.7199 2.30267 53.078 2.49917 52.4429 2.71195C52.1712 2.80296 51.8824 2.67283 51.7979 2.4213C51.7133 2.16976 51.865 1.89208 52.1367 1.80107C52.7904 1.58207 53.4517 1.37958 54.1201 1.19555C54.3963 1.1195 54.6756 1.26575 54.744 1.52221ZM50.8524 2.76556C50.9517 3.01175 50.816 3.29612 50.5493 3.40073C49.9219 3.64687 49.302 3.90773 48.6904 4.18141C48.4291 4.29833 48.1259 4.19807 48.0133 3.95748C47.9007 3.7169 48.0213 3.42708 48.2825 3.31017C48.9095 3.02965 49.5455 2.76199 50.1898 2.5092C50.4565 2.4046 50.7531 2.51937 50.8524 2.76556ZM47.1054 4.38826C47.2301 4.62312 47.1239 4.9173 46.8681 5.04534C46.2639 5.34782 45.6689 5.66156 45.0839 5.98454C44.8338 6.12262 44.5211 6.04883 44.3854 5.81973C44.2498 5.59063 44.3426 5.29298 44.5927 5.1549C45.1902 4.82502 45.7984 4.5043 46.4165 4.19484C46.6723 4.0668 46.9807 4.1534 47.1054 4.38826ZM43.5175 6.32083C43.6631 6.5442 43.583 6.84458 43.3385 6.99174C42.7582 7.34109 42.1892 7.69802 41.6324 8.06036C41.3935 8.21577 41.0745 8.16526 40.9199 7.94755C40.7653 7.72983 40.8336 7.42735 41.0724 7.27194C41.6396 6.90291 42.2195 6.53912 42.8113 6.18285C43.0558 6.03568 43.372 6.09746 43.5175 6.32083ZM40.0894 8.50795C40.2523 8.7201 40.1952 9.02416 39.9619 9.18709C39.403 9.57741 38.8584 9.97118 38.329 10.3658C38.1012 10.5356 37.7783 10.5058 37.6078 10.2991C37.4374 10.0924 37.4838 9.78722 37.7117 9.6174C38.2497 9.21632 38.8035 8.81592 39.372 8.41884C39.6053 8.25591 39.9265 8.29581 40.0894 8.50795ZM36.8157 10.9081C36.9932 11.1094 36.9568 11.4154 36.7344 11.5916C36.1969 12.0173 35.6783 12.441 35.1798 12.8592C34.9627 13.0412 34.6376 13.03 34.4536 12.834C34.2696 12.638 34.2964 12.3316 34.5135 12.1495C35.0195 11.7251 35.5459 11.295 36.0917 10.8627C36.3141 10.6865 36.6383 10.7069 36.8157 10.9081ZM33.7045 13.4801C33.8946 13.6708 33.8771 13.9774 33.6654 14.165C33.1411 14.6297 32.6449 15.0825 32.1786 15.5186C31.9724 15.7115 31.6463 15.7176 31.4503 15.5323C31.2543 15.347 31.2626 15.0404 31.4688 14.8475C31.9417 14.4052 32.445 13.9458 32.977 13.4744C33.1886 13.2869 33.5144 13.2894 33.7045 13.4801ZM30.7408 16.2139C30.9425 16.3937 30.9434 16.7 30.7428 16.898C30.2216 17.4124 29.7551 17.8884 29.3472 18.3147C29.1526 18.518 28.8266 18.5419 28.619 18.368C28.4113 18.1942 28.4007 17.8884 28.5953 17.6851C29.0098 17.252 29.4834 16.7688 30.0122 16.2469C30.2128 16.0488 30.539 16.034 30.7408 16.2139ZM27.9362 19.1039C28.1507 19.2703 28.1731 19.575 27.9862 19.7844C27.7772 20.0186 27.6183 20.2015 27.5121 20.3253C27.459 20.3872 27.4191 20.4343 27.3926 20.4657L27.3632 20.5008L27.3561 20.5092L27.3545 20.5112L27.3542 20.5115C27.1757 20.7272 26.8514 20.7738 26.6298 20.6156C26.4083 20.4573 26.3734 20.1542 26.552 19.9385L26.9531 20.225L26.552 19.9385L26.552 19.9385L26.5521 19.9384L26.5523 19.9381L26.553 19.9373L26.5553 19.9346L26.5638 19.9244L26.5962 19.8858C26.6246 19.8521 26.6666 19.8025 26.7218 19.7382C26.8322 19.6095 26.9956 19.4215 27.2093 19.182C27.3962 18.9725 27.7217 18.9376 27.9362 19.1039ZM42.8292 141.201C43.4346 141.509 44.0561 141.815 44.6939 142.116C44.9441 142.234 45.0363 142.524 44.8999 142.764C44.7634 143.003 44.4499 143.101 44.1997 142.983C43.5525 142.678 42.9217 142.367 42.3073 142.054C42.0614 141.928 41.9789 141.636 42.123 141.4C42.2671 141.164 42.5833 141.075 42.8292 141.201ZM41.1572 140.888C41.0055 141.12 40.6869 141.2 40.4456 141.067C39.8192 140.722 39.2116 140.375 38.6227 140.026C38.3863 139.886 38.3237 139.589 38.483 139.361C38.6422 139.134 38.9629 139.063 39.1993 139.203C39.7794 139.547 40.3779 139.889 40.995 140.228C41.2363 140.361 41.3089 140.656 41.1572 140.888ZM45.8944 143.215C46.0232 142.972 46.3337 142.865 46.588 142.976C47.215 143.249 47.8565 143.518 48.5126 143.781C48.7706 143.885 48.8816 144.168 48.7605 144.414C48.6394 144.66 48.332 144.776 48.0741 144.673C47.4085 144.406 46.7577 144.133 46.1215 143.856C45.8673 143.745 45.7656 143.458 45.8944 143.215ZM37.5629 138.796C37.3963 139.019 37.0737 139.08 36.8425 138.933C36.238 138.548 35.6557 138.164 35.0953 137.78C34.8696 137.626 34.8278 137.324 35.0019 137.106C35.176 136.889 35.5001 136.837 35.7257 136.991C36.2774 137.369 36.8508 137.748 37.4461 138.126C37.6773 138.274 37.7296 138.573 37.5629 138.796ZM23.6033 126.977C23.6642 126.714 23.9392 126.538 24.2177 126.585L28.7549 127.34C29.0334 127.386 29.2097 127.637 29.1489 127.9C29.088 128.163 28.8129 128.338 28.5345 128.292L25.2286 127.742C25.2668 127.918 25.1955 128.112 25.0289 128.233C24.8228 128.384 24.541 128.372 24.3633 128.217L23.6195 131.429C23.5586 131.692 23.2835 131.868 23.0051 131.821C22.7267 131.775 22.5503 131.524 22.6112 131.261L23.6033 126.977ZM49.7865 144.809C49.8999 144.559 50.2038 144.435 50.4653 144.532C51.1116 144.769 51.771 145.001 52.4436 145.227C52.7083 145.316 52.8372 145.592 52.7316 145.843C52.6259 146.095 52.3256 146.227 52.061 146.139C51.3789 145.91 50.7101 145.675 50.0547 145.434C49.7932 145.337 49.6731 145.058 49.7865 144.809ZM34.1232 136.484C33.9417 136.696 33.6165 136.738 33.3967 136.577C32.8172 136.151 32.2652 135.73 31.7401 135.315C31.5266 135.147 31.5065 134.842 31.6953 134.635C31.8841 134.428 32.2102 134.397 32.4237 134.566C32.9402 134.973 33.4834 135.388 34.0537 135.806C34.2735 135.968 34.3046 136.271 34.1232 136.484ZM53.7834 146.18C53.8813 145.925 54.1777 145.785 54.4454 145.867C54.7808 145.969 55.1193 146.069 55.4609 146.168C55.7817 146.261 56.1022 146.347 56.4226 146.426C56.6951 146.494 56.8484 146.758 56.765 147.017C56.6816 147.275 56.393 147.429 56.1205 147.362C55.7872 147.279 55.4537 147.189 55.1202 147.093C54.7739 146.993 54.4307 146.891 54.0906 146.787C53.823 146.706 53.6854 146.434 53.7834 146.18ZM30.8678 133.958C30.6717 134.159 30.3451 134.18 30.1382 134.004C29.5842 133.534 29.0674 133.076 28.5874 132.636C28.3879 132.454 28.3911 132.148 28.5947 131.953C28.7982 131.759 29.1249 131.749 29.3244 131.932C29.7959 132.364 30.3037 132.813 30.8484 133.276C31.0552 133.452 31.0639 133.757 30.8678 133.958ZM57.7481 147.221C57.8098 146.959 58.0853 146.784 58.3636 146.831C59.0236 146.942 59.6823 147.028 60.3391 147.089C60.6214 147.115 60.8182 147.352 60.7787 147.617C60.7392 147.883 60.4783 148.077 60.1961 148.051C59.5127 147.988 58.8272 147.899 58.1403 147.783C57.862 147.735 57.6864 147.484 57.7481 147.221ZM27.8198 131.214C27.6087 131.401 27.2823 131.399 27.0909 131.208C26.5465 130.667 26.0695 130.167 25.6583 129.718C25.4764 129.52 25.5069 129.214 25.7263 129.035C25.9457 128.857 26.271 128.873 26.4529 129.071C26.8548 129.51 27.3219 130 27.8557 130.53C28.0471 130.721 28.031 131.027 27.8198 131.214ZM61.7908 147.674C61.8082 147.407 62.053 147.195 62.3374 147.2C63.0099 147.213 63.6799 147.202 64.3468 147.167C64.6318 147.153 64.866 147.357 64.87 147.624C64.874 147.89 64.6462 148.118 64.3612 148.133C63.6691 148.168 62.9732 148.18 62.2742 148.167C61.9897 148.161 61.7733 147.94 61.7908 147.674ZM65.8862 147.537C65.8617 147.272 66.0722 147.03 66.3561 146.996C67.0267 146.916 67.6935 146.815 68.3558 146.694C68.6375 146.642 68.9011 146.813 68.9447 147.075C68.9883 147.337 68.7953 147.591 68.5136 147.643C67.8291 147.768 67.1392 147.873 66.4445 147.955C66.1606 147.989 65.9106 147.801 65.8862 147.537ZM69.9449 146.861C69.8836 146.602 70.0595 146.338 70.3379 146.27C70.9961 146.109 71.6491 145.93 72.296 145.734C72.5702 145.65 72.8554 145.789 72.933 146.043C73.0106 146.296 72.8512 146.569 72.5769 146.652C71.9113 146.854 71.2387 147.039 70.5599 147.205C70.2816 147.273 70.0063 147.119 69.9449 146.861ZM73.9044 145.72C73.812 145.472 73.9557 145.191 74.2253 145.095C74.8649 144.865 75.4976 144.62 76.1225 144.363C76.3872 144.254 76.6875 144.363 76.7933 144.606C76.8991 144.85 76.7704 145.136 76.5057 145.245C75.8654 145.509 75.2165 145.76 74.5599 145.996C74.2903 146.093 73.9968 145.969 73.9044 145.72ZM77.7292 144.196C77.6112 143.957 77.7259 143.667 77.9854 143.546C78.6034 143.26 79.2126 142.961 79.8123 142.654C80.0664 142.523 80.377 142.606 80.506 142.839C80.635 143.072 80.5335 143.367 80.2794 143.497C79.6672 143.811 79.0446 144.116 78.4126 144.409C78.1531 144.53 77.8472 144.434 77.7292 144.196ZM81.4035 142.357C81.2645 142.129 81.3536 141.832 81.6024 141.692C82.1983 141.358 82.7832 141.015 83.3561 140.667C83.5997 140.52 83.9171 140.58 84.0652 140.802C84.2133 141.024 84.1359 141.324 83.8924 141.472C83.309 141.827 82.7132 142.175 82.1057 142.516C81.8569 142.656 81.5425 142.584 81.4035 142.357ZM84.9273 140.259C84.7709 140.042 84.8372 139.74 85.0755 139.584C85.651 139.209 86.2124 138.829 86.7587 138.449C86.9918 138.286 87.3137 138.326 87.4777 138.538C87.6418 138.75 87.5858 139.053 87.3527 139.216C86.7978 139.603 86.2271 139.988 85.6418 140.37C85.4036 140.526 85.0836 140.476 84.9273 140.259ZM88.3022 137.945C88.1311 137.738 88.1772 137.434 88.4051 137.265C88.9605 136.853 89.4968 136.444 90.013 136.039C90.2358 135.864 90.5605 135.886 90.7382 136.087C90.9159 136.289 90.8793 136.594 90.6565 136.769C90.1329 137.18 89.5885 137.596 89.0248 138.014C88.7968 138.183 88.4733 138.152 88.3022 137.945ZM91.5224 135.455C91.3385 135.258 91.366 134.952 91.5837 134.772C92.1274 134.321 92.6423 133.882 93.1267 133.458C93.3393 133.272 93.6655 133.277 93.8554 133.469C94.0453 133.661 94.0269 133.967 93.8143 134.152C93.3232 134.582 92.801 135.027 92.2497 135.484C92.0319 135.665 91.7063 135.652 91.5224 135.455ZM94.6005 132.8C94.4048 132.613 94.4142 132.307 94.6214 132.116C95.164 131.616 95.6504 131.152 96.0762 130.737C96.2776 130.54 96.6044 130.528 96.8061 130.709C97.0077 130.889 97.0079 131.195 96.8066 131.392C96.374 131.814 95.8804 132.284 95.3301 132.791C95.1228 132.983 94.7962 132.986 94.6005 132.8ZM97.5253 129.985C97.3165 129.811 97.3047 129.506 97.4987 129.304C97.7177 129.075 97.8844 128.896 97.9958 128.775C98.0516 128.715 98.0935 128.668 98.1213 128.638L98.1523 128.603L98.1597 128.595L98.1614 128.593L98.1617 128.593C98.3477 128.384 98.6736 128.349 98.8895 128.515C99.1054 128.68 99.1296 128.984 98.9435 129.194L98.5526 128.893L98.9435 129.194L98.9434 129.194L98.9431 129.194L98.9425 129.195L98.94 129.198L98.9311 129.207L98.8972 129.245L98.8448 129.303L98.7654 129.389C98.6496 129.515 98.4783 129.699 98.2546 129.932C98.0605 130.135 97.734 130.159 97.5253 129.985ZM35.9796 33.4777L33.3384 35.6593L29.1631 38.4187C28.6026 38.7891 27.9826 39.0611 27.3304 39.2227C25.818 39.5975 24.5154 40.5556 23.7104 41.8853L22.8647 43.2824C22.5931 43.731 22.3582 44.2005 22.1621 44.6863L20.7826 48.1047L19.6036 50.4419C19.2745 51.0942 18.8747 51.7091 18.4114 52.2754L16.6697 54.4044L15.5433 56.2276C15.147 56.8692 15.0271 57.6417 15.2108 58.3699C15.5316 59.6418 14.9163 60.968 13.7334 61.5542L13.3941 61.7224C12.7569 62.0381 12.2396 62.5513 11.9202 63.1843L11.082 64.8456C10.8558 65.294 10.7379 65.7884 10.7379 66.2893C10.7379 67.3676 10.1936 68.3762 9.28908 68.974L9.13046 69.0788C8.54137 69.4681 7.85049 69.6758 7.14476 69.6758H6.1844C5.34828 69.6758 4.54496 70.0065 3.95125 70.5949L3.83975 70.7054C3.42737 71.1142 2.89337 71.3792 2.31806 71.4607C0.19465 71.7614 -0.74374 74.2957 0.680382 75.8837L3.48784 79.0141C3.84466 79.4119 4.04176 79.9269 4.04177 80.4614L4.04177 81.1947C4.04177 82.3492 4.3123 83.4866 4.83188 84.5166C5.41125 85.6651 6.28139 86.6427 7.35691 87.3533L8.22704 87.9283L11.058 90.0327C11.3939 90.2824 11.8022 90.4173 12.2223 90.4173H12.4189C13.6526 90.4173 14.518 91.6229 14.126 92.7887C14.0997 92.8668 14.0678 92.9432 14.0306 93.0169L13.7703 93.5329C13.4827 94.1031 13.7132 94.7954 14.2851 95.0789C14.6765 95.2728 14.9235 95.6703 14.9235 96.1062L14.9235 96.4496C14.9235 96.8105 14.6904 97.1315 14.3458 97.2454C13.6343 97.4805 13.5613 98.4536 14.2303 98.7852L15.7605 99.5435L18.2717 100.373L19.8971 100.91C20.4645 101.098 20.9333 101.501 21.2014 102.033C21.4695 102.564 21.9383 102.967 22.5057 103.155L23.169 103.374C23.7588 103.569 24.41 103.415 24.8519 102.977C24.9292 102.901 24.9987 102.817 25.0594 102.726L26.6423 100.373C27.1046 99.4566 28.2243 99.0831 29.1435 99.5386L30.8275 100.373L32.4283 101.431C32.9482 101.774 33.1276 102.451 32.8465 103.008C32.6352 103.427 32.2044 103.692 31.7343 103.692H31.5438C30.687 103.692 29.9905 104.385 29.9905 105.238L29.9905 106.041C29.9905 106.662 30.238 107.255 30.6786 107.692L32.7892 109.784C33.1532 110.145 33.5732 110.445 34.0333 110.673L36.0019 111.648C36.4219 111.857 36.6869 112.283 36.6869 112.751C36.6869 113.286 36.3415 113.762 35.8308 113.93L35.1771 114.146C34.5797 114.344 34.1757 114.9 34.1757 115.526C34.1757 116.322 34.8228 116.966 35.6233 116.966L38.4953 116.966C38.9607 116.966 39.4233 116.892 39.8655 116.746L40.0972 116.669C41.1499 116.321 42.279 116.278 43.3529 116.544L43.8182 116.659C44.6381 116.862 45.4165 117.204 46.1197 117.668C47.0726 118.298 48.1599 118.699 49.2966 118.839L52.9012 119.286C53.7808 119.395 54.672 119.186 55.4123 118.697C56.281 118.123 57.3507 117.938 58.3594 118.188L59.3969 118.445C59.88 118.565 60.3763 118.625 60.8748 118.625H61.2723C62.7195 118.625 64.1455 118.959 65.4386 119.6L65.6283 119.694C66.4198 120.086 67.2605 120.372 68.1284 120.544L69.5306 120.822C70.5062 121.015 71.5096 121.031 72.4924 120.869C74.7479 120.496 76.7511 119.21 78.0245 117.317L78.8749 116.052C79.2084 115.557 79.5904 115.095 80.0153 114.673C81.2381 113.461 82.7818 112.621 84.4647 112.25L89.4213 111.158L90.6004 110.866C91.9826 110.524 93.4432 110.774 94.6262 111.555C95.06 111.842 95.5359 112.06 96.0371 112.202L101.14 113.647L102.815 114.062C103.922 114.337 104.974 114.798 105.923 115.425L107 116.136L111.22 118.925C111.743 119.271 112.357 119.455 112.987 119.455H114.928C115.633 119.455 116.207 118.884 116.207 118.182C116.207 117.93 116.282 117.684 116.423 117.474L116.887 116.784C117.52 115.844 117.724 114.682 117.448 113.588L117.226 112.709C117.105 112.23 117.044 111.738 117.044 111.244V107.601C117.044 107.21 116.98 106.821 116.856 106.45C116.453 105.251 116.705 103.928 117.523 102.956L119.711 100.354C120.124 99.8616 120.206 99.1733 119.918 98.6023C119.69 98.1501 119.69 97.6164 119.919 97.1626L120.742 95.5308C121.041 94.9391 121.649 94.5651 122.313 94.5651C123.144 94.5651 123.858 95.1465 124.021 95.9565L124.129 96.4914C124.381 97.7399 125.567 98.5733 126.836 98.3937L128.109 98.2134C129.535 98.0115 130.726 97.0233 131.184 95.663L131.274 95.3948L131.866 92.4587C132.028 91.6585 132.028 90.8351 131.867 90.0363L131.639 88.9051C131.408 87.7646 130.663 86.7954 129.618 86.2774C128.552 85.7493 127.297 85.7504 126.228 86.2803L124.577 87.0982L121.059 88.8417C120.07 89.332 118.981 89.5872 117.878 89.5872C116.779 89.5872 115.696 89.3339 114.714 88.8473L114.361 88.6721C111.387 87.1986 109.51 84.1786 109.51 80.8672V80.4609V70.505L110.148 64.1815C110.28 62.8788 110.153 61.5643 109.774 60.3128L108.462 55.9786C108.05 54.6165 107.349 53.3594 106.406 52.2917L102.505 47.8731C102.154 47.4747 101.835 47.0489 101.551 46.6C100.052 44.2292 97.5621 40.3173 96.9547 39.4705C96.5032 38.8413 96.0263 36.7232 95.678 34.8007C95.3897 33.2092 94.6586 31.7242 93.5088 30.5846L91.7368 28.8283C90.8299 27.9293 89.4897 27.6166 88.2706 28.0194L88.1887 28.0465C87.8962 28.1431 87.5901 28.1924 87.2823 28.1924L85.8333 28.1924C85.0421 28.1924 84.3988 28.8325 84.3988 29.6199C84.3988 29.7734 84.3738 29.926 84.3248 30.0718L84.2157 30.3962C83.8115 31.598 82.7903 32.4936 81.5419 32.7411L79.3765 33.1703L72.0258 34.3846C70.2913 34.6711 68.7218 35.5854 67.6193 36.9514L66.6172 38.1929C66.2081 38.6998 65.6323 39.0469 64.9921 39.1724C64.0483 39.3576 63.0778 39.0407 62.4308 38.336L60.0733 35.768C59.1122 34.7212 57.5679 34.4372 56.2873 35.0718C55.5281 35.4481 54.6513 35.5105 53.8489 35.2453L52.5907 34.8296L49.2425 34L47.1527 33.4822C46.3264 33.2774 45.4613 33.2776 44.6332 33.4828L44.292 33.5674C43.1736 33.8445 41.9925 33.6708 41.0061 33.0842C39.421 32.1416 37.4064 32.2993 35.9796 33.4777ZM61.7302 46.6468L60.4484 49.2231L57.582 49.6363L59.6561 51.6418L59.1665 54.4738L61.7302 53.1369L64.2941 54.4739L63.8044 51.6419L65.8785 49.6365L63.012 49.2231L61.7302 46.6468ZM49.6763 50.2063L48.3945 52.7828L45.5281 53.196L47.6023 55.2015L47.1127 58.0336L49.6763 56.6963L52.2402 58.0336L51.7505 55.2015L53.8246 53.196L50.9581 52.7828L49.6763 50.2063ZM73.7841 50.2063L72.5022 52.7828L69.6358 53.196L71.71 55.2015L71.2204 58.0336L73.7843 56.6963L76.3477 58.0336L75.8581 55.2015L77.9323 53.196L75.0658 52.7828L73.7841 50.2063ZM40.544 59.3228L39.2622 61.8991L36.3957 62.3123L38.47 64.3177L37.9804 67.1497L40.544 65.8128L43.1079 67.1497L42.6181 64.3177L44.6923 62.3124L41.8258 61.8991L40.544 59.3228ZM82.9165 59.3228L81.6345 61.8991L78.7681 62.3123L80.8422 64.3177L80.3526 67.1497L82.9165 65.8128L85.4799 67.1497L84.9903 64.3177L87.0645 62.3123L84.198 61.899L82.9165 59.3228ZM37.2727 71.2882L35.9909 73.8645L33.1244 74.2777L35.1987 76.2832L34.7091 79.1151L37.2727 77.7782L39.8366 79.115L39.3468 76.283L41.421 74.2777L38.5545 73.8645L37.2727 71.2882ZM86.1878 71.2882L84.9058 73.8645L82.0395 74.2777L84.1136 76.2832L83.624 79.1151L86.1879 77.7782L88.7514 79.115L88.2618 76.283L90.3359 74.2776L87.4694 73.8644L86.1878 71.2879V71.2882ZM40.544 83.4432L39.2622 86.0196L36.3957 86.433L38.47 88.4381L37.9804 91.2703L40.544 89.933L43.1079 91.2703L42.6181 88.4383L44.6923 86.4331L41.8258 86.0196L40.544 83.4432ZM82.9165 83.4432L81.6345 86.0196L78.7682 86.4331L80.8423 88.4383L80.3527 91.2704L82.9166 89.9332L85.4801 91.2704L84.9905 88.4384L87.0646 86.4333L84.1981 86.0198L82.9165 83.4432ZM49.6763 92.3327L48.3945 94.9092L45.5281 95.3225L47.6023 97.3279L47.1127 100.16L49.6763 98.8227L52.2402 100.16L51.7505 97.3279L53.8246 95.3225L50.9581 94.9092L49.6763 92.3327ZM73.7841 92.3327L72.5022 94.9092L69.6357 95.3225L71.7098 97.3279L71.2202 100.16L73.7841 98.8227L76.3476 100.16L75.858 97.3279L77.9321 95.3225L75.0657 94.9092L73.7841 92.3327ZM61.7062 95.5256L61.7062 95.5257L61.7061 95.5256H61.7062ZM60.4244 98.1022L61.7062 95.5257L61.7301 95.5736L61.7541 95.5256L63.0359 98.1022L65.9024 98.5152L63.8285 100.521L64.3178 103.353L64.2652 103.325L64.27 103.353L61.7302 102.028L59.1905 103.353L59.1953 103.325L59.1428 103.353L59.6321 100.521L57.558 98.5152L60.4244 98.1022Z" fill="#383A3C"/>
</svg>
