<svg width="28" height="28" viewBox="0 0 35 35" fill="none" xmlns="http://www.w3.org/2000/svg">
<path d="M16.0417 17.4999C14.4375 17.4999 13.0642 16.9287 11.9219 15.7864C10.7795 14.644 10.2083 13.2708 10.2083 11.6666C10.2083 10.0624 10.7795 8.68916 11.9219 7.54679C13.0642 6.40443 14.4375 5.83325 16.0417 5.83325C17.6458 5.83325 19.0191 6.40443 20.1615 7.54679C21.3038 8.68916 21.875 10.0624 21.875 11.6666C21.875 13.2708 21.3038 14.644 20.1615 15.7864C19.0191 16.9287 17.6458 17.4999 16.0417 17.4999ZM32.2292 34.2708L27.5625 29.6041C27.0521 29.8958 26.5052 30.1388 25.9219 30.3333C25.3385 30.5277 24.7188 30.6249 24.0625 30.6249C22.2396 30.6249 20.6899 29.9871 19.4133 28.7116C18.1378 27.4351 17.5 25.8853 17.5 24.0624C17.5 22.2395 18.1378 20.6898 19.4133 19.4133C20.6899 18.1377 22.2396 17.4999 24.0625 17.4999C25.8854 17.4999 27.4351 18.1377 28.7117 19.4133C29.9872 20.6898 30.625 22.2395 30.625 24.0624C30.625 24.7187 30.5278 25.3385 30.3333 25.9218C30.1389 26.5051 29.8958 27.052 29.6042 27.5624L34.2708 32.2291L32.2292 34.2708ZM24.0625 27.7083C25.0833 27.7083 25.9462 27.3558 26.651 26.651C27.3559 25.9461 27.7083 25.0833 27.7083 24.0624C27.7083 23.0416 27.3559 22.1787 26.651 21.4739C25.9462 20.769 25.0833 20.4166 24.0625 20.4166C23.0417 20.4166 22.1788 20.769 21.474 21.4739C20.7691 22.1787 20.4167 23.0416 20.4167 24.0624C20.4167 25.0833 20.7691 25.9461 21.474 26.651C22.1788 27.3558 23.0417 27.7083 24.0625 27.7083ZM16.0781 18.9583C15.0573 20.4652 14.5469 22.1666 14.5469 24.0624C14.5469 25.9583 15.0573 27.6596 16.0781 29.1666H4.375V25.1197C4.375 24.2933 4.5816 23.5277 4.99479 22.8228C5.40799 22.118 5.97917 21.5833 6.70833 21.2187C7.94792 20.5867 9.34549 20.052 10.901 19.6145C12.4566 19.177 14.1823 18.9583 16.0781 18.9583Z" fill="#B21E23"/>
</svg>
