<svg width="703" height="600" viewBox="0 0 703 600" fill="none" xmlns="http://www.w3.org/2000/svg">
<path fill-rule="evenodd" clip-rule="evenodd" d="M626.21 510.214C625.868 509.206 625.526 508.2 625.187 507.196L624.239 507.517C624.579 508.521 624.921 509.527 625.263 510.535L626.21 510.214ZM622.585 499.482L622.204 498.347L621.921 497.504L621.668 496.748C621.499 496.244 621.331 495.74 621.163 495.237L620.214 495.554C620.876 497.533 621.542 499.519 622.213 501.513L623.161 501.194L622.881 500.364L622.585 499.482ZM619.192 489.323C618.54 487.36 617.893 485.403 617.25 483.454L616.3 483.767C616.689 484.947 617.08 486.13 617.473 487.316C617.729 488.089 617.986 488.863 618.243 489.639L619.192 489.323ZM615.335 477.629C615.047 476.75 614.76 475.873 614.474 474.997L614.04 473.668L613.699 472.62L613.447 471.847L612.496 472.156C613.121 474.077 613.75 476.005 614.384 477.94L615.335 477.629ZM611.587 466.109C610.971 464.203 610.36 462.305 609.754 460.414L608.801 460.719C609.408 462.611 610.019 464.51 610.635 466.416L611.587 466.109ZM607.948 454.762C607.35 452.886 606.757 451.016 606.168 449.154L605.215 449.456C605.455 450.214 605.695 450.973 605.936 451.734C606.287 452.842 606.64 453.953 606.995 455.066L607.948 454.762ZM604.416 443.589C603.836 441.741 603.261 439.9 602.69 438.066L601.735 438.364C602.306 440.198 602.882 442.04 603.462 443.888L604.416 443.589ZM600.991 432.587C600.429 430.767 599.871 428.955 599.318 427.15L598.362 427.443C598.915 429.249 599.473 431.062 600.035 432.882L600.991 432.587ZM597.581 421.459C596.962 419.422 596.349 417.394 595.741 415.376L594.783 415.664C595.391 417.683 596.005 419.712 596.624 421.75L597.581 421.459ZM593.935 409.347C593.338 407.347 592.747 405.355 592.162 403.373L591.203 403.656C591.788 405.639 592.38 407.632 592.976 409.633L593.935 409.347ZM590.422 397.453C589.848 395.488 589.279 393.533 588.715 391.587L587.755 391.865C588.318 393.812 588.888 395.768 589.462 397.734L590.422 397.453ZM587.041 385.774C586.489 383.845 585.942 381.926 585.4 380.015L584.438 380.288C584.98 382.199 585.527 384.12 586.08 386.049L587.041 385.774ZM583.791 374.309C583.26 372.416 582.735 370.532 582.215 368.656L581.251 368.923C581.771 370.8 582.297 372.685 582.828 374.579L583.791 374.309ZM580.67 363.056C580.161 361.198 579.656 359.349 579.158 357.509L578.192 357.77C578.692 359.612 579.196 361.462 579.706 363.321L580.67 363.056ZM577.677 352.014C577.179 350.157 576.687 348.308 576.2 346.469L575.234 346.725C575.721 348.565 576.213 350.414 576.711 352.273L577.677 352.014ZM574.576 340.287C574.041 338.238 573.513 336.2 572.992 334.173L572.024 334.422C572.545 336.45 573.073 338.489 573.608 340.54L574.576 340.287ZM571.449 328.127C570.942 326.123 570.441 324.13 569.947 322.148L568.977 322.39C569.471 324.373 569.972 326.367 570.48 328.373L571.449 328.127ZM568.484 316.237C568.004 314.278 567.529 312.33 567.062 310.393L566.09 310.627C566.558 312.566 567.032 314.515 567.513 316.476L568.484 316.237ZM565.679 304.615C565.224 302.7 564.776 300.796 564.335 298.903L563.361 299.131C563.803 301.025 564.251 302.93 564.706 304.846L565.679 304.615ZM563.03 293.258C562.601 291.387 562.179 289.527 561.763 287.678L560.788 287.897C561.204 289.748 561.626 291.609 562.055 293.481L563.03 293.258ZM560.535 282.163C560.096 280.172 559.665 278.193 559.24 276.227L558.263 276.438C558.687 278.406 559.119 280.386 559.559 282.379L560.535 282.163ZM557.912 269.996C557.477 267.934 557.051 265.886 556.634 263.852L555.654 264.053C556.072 266.089 556.498 268.138 556.933 270.203L557.912 269.996ZM555.405 257.794C555.004 255.789 554.611 253.798 554.226 251.821L553.244 252.012C553.63 253.99 554.023 255.983 554.424 257.99L555.405 257.794ZM553.096 245.933C552.727 243.984 552.367 242.05 552.014 240.129L551.031 240.31C551.383 242.232 551.744 244.168 552.113 246.119L553.096 245.933ZM550.981 234.41C550.644 232.517 550.315 230.638 549.994 228.774L549.009 228.943C549.33 230.81 549.659 232.69 549.996 234.585L550.981 234.41ZM549.055 223.22C548.719 221.196 548.392 219.188 548.075 217.197L547.087 217.355C547.405 219.348 547.732 221.358 548.069 223.384L549.055 223.22ZM547.093 210.897C546.776 208.815 546.47 206.753 546.174 204.708L545.184 204.852C545.48 206.898 545.787 208.964 546.104 211.047L547.093 210.897ZM545.317 198.631C545.041 196.623 544.776 194.634 544.521 192.663L543.529 192.792C543.784 194.765 544.05 196.757 544.326 198.767L545.317 198.631ZM543.785 186.806C543.55 184.871 543.325 182.955 543.11 181.056L542.116 181.169C542.332 183.07 542.557 184.989 542.793 186.926L543.785 186.806ZM542.494 175.415C542.295 173.523 542.106 171.65 541.927 169.795L540.932 169.891C541.111 171.749 541.3 173.625 541.499 175.52L542.494 175.415ZM666.248 128.857C664.255 129.349 662.167 129.79 659.982 130.179L660.157 131.164C662.362 130.771 664.472 130.325 666.488 129.828L666.248 128.857ZM677.134 125.319C675.497 126.004 673.769 126.644 671.948 127.237L672.257 128.188C674.103 127.587 675.857 126.937 677.52 126.241L677.134 125.319ZM654.41 131.029C652.563 131.266 650.654 131.468 648.682 131.636L648.767 132.632C650.752 132.464 652.675 132.259 654.537 132.02L654.41 131.029ZM541.341 163.365C541.159 161.246 540.99 159.153 540.834 157.083L539.837 157.158C539.993 159.231 540.162 161.328 540.344 163.45L541.341 163.365ZM687.708 119.417C686.213 120.524 684.589 121.573 682.828 122.559L683.317 123.431C685.112 122.426 686.773 121.354 688.303 120.22L687.708 119.417ZM642.58 132.031C640.482 132.127 638.321 132.185 636.094 132.206L636.104 133.206C638.341 133.185 640.515 133.126 642.625 133.03L642.58 132.031ZM695.951 111.012C694.856 112.598 693.596 114.12 692.164 115.569L692.875 116.272C694.347 114.783 695.645 113.216 696.774 111.58L695.951 111.012ZM630.488 132.179C628.629 132.145 626.729 132.086 624.786 132.002L624.743 133.001C626.693 133.086 628.602 133.145 630.469 133.179L630.488 132.179ZM618.83 131.671C616.802 131.535 614.731 131.373 612.617 131.184L612.527 132.18C614.649 132.37 616.728 132.533 618.763 132.669L618.83 131.671ZM540.406 150.949C540.277 148.929 540.16 146.933 540.056 144.961L539.058 145.013C539.162 146.989 539.279 148.989 539.409 151.013L540.406 150.949ZM700.735 100.342C700.26 102.267 699.622 104.137 698.81 105.943L699.723 106.353C700.56 104.49 701.217 102.562 701.706 100.581L700.735 100.342ZM606.141 130.535C604.318 130.333 602.465 130.112 600.58 129.873L600.454 130.865C602.344 131.105 604.203 131.326 606.031 131.529L606.141 130.535ZM594.955 129.112C593.051 128.84 591.116 128.549 589.152 128.238L588.996 129.226C590.965 129.537 592.904 129.829 594.814 130.102L594.955 129.112ZM583.168 127.25C581.144 126.901 579.089 126.532 577.003 126.143L576.82 127.127C578.91 127.516 580.969 127.885 582.998 128.235L583.168 127.25ZM701.711 88.6065C701.833 90.616 701.821 92.5926 701.667 94.5278L702.664 94.6073C702.822 92.6226 702.834 90.5989 702.709 88.5457L701.711 88.6065ZM539.783 139.117C539.704 137.193 539.638 135.293 539.584 133.416L538.584 133.445C538.638 135.325 538.705 137.23 538.783 139.158L539.783 139.117ZM570.654 124.918C568.796 124.547 566.916 124.161 565.012 123.76L564.806 124.739C566.713 125.141 568.597 125.527 570.458 125.899L570.654 124.918ZM559.495 122.568C557.634 122.157 555.752 121.731 553.848 121.291L553.623 122.265C555.53 122.706 557.415 123.133 559.279 123.545L559.495 122.568ZM539.459 127.857C539.424 125.687 539.406 123.55 539.405 121.445L538.405 121.445C538.406 123.555 538.424 125.698 538.459 127.873L539.459 127.857ZM699.627 76.9235C700.181 78.8523 700.634 80.7679 700.98 82.6633L701.964 82.4838C701.611 80.5538 701.151 78.6059 700.588 76.6473L699.627 76.9235ZM548.072 119.927C546.124 119.458 544.155 118.974 542.164 118.476L541.921 119.446C543.915 119.945 545.887 120.43 547.838 120.899L548.072 119.927ZM536.124 116.935C534.089 116.407 532.031 115.863 529.951 115.305L529.692 116.27C531.775 116.83 533.835 117.374 535.873 117.903L536.124 116.935ZM695.376 65.7553C696.221 67.5505 696.99 69.3461 697.679 71.1366L698.612 70.7776C697.914 68.9634 697.135 67.1456 696.281 65.3296L695.376 65.7553ZM539.453 115.144C539.486 113.077 539.535 111.043 539.602 109.042L538.602 109.009C538.536 111.016 538.486 113.056 538.453 115.128L539.453 115.144ZM523.999 113.681C522.217 113.188 520.419 112.683 518.605 112.168L518.332 113.13C520.148 113.646 521.948 114.151 523.732 114.645L523.999 113.681ZM513.115 110.589C511.269 110.052 509.407 109.503 507.528 108.944L507.243 109.902C509.123 110.462 510.987 111.011 512.835 111.549L513.115 110.589ZM539.849 103.136C539.948 101.2 540.062 99.296 540.193 97.4242L539.195 97.3546C539.064 99.2328 538.949 101.143 538.85 103.085L539.849 103.136ZM689.567 55.2307C690.647 56.9372 691.667 58.6541 692.621 60.3764L693.495 59.8919C692.532 58.1518 691.502 56.4182 690.412 54.6958L689.567 55.2307ZM501.844 107.231C499.933 106.649 498.006 106.055 496.062 105.45L495.765 106.405C497.71 107.01 499.64 107.605 501.553 108.187L501.844 107.231ZM540.631 91.904C540.827 89.7184 541.044 87.5789 541.284 85.4848L540.291 85.3711C540.05 87.4736 539.831 89.6213 539.635 91.8149L540.631 91.904ZM682.595 45.42C683.862 47.0234 685.079 48.6457 686.243 50.2823L687.058 49.703C685.884 48.0522 684.657 46.4164 683.38 44.8L682.595 45.42ZM490.181 103.6C488.205 102.972 486.211 102.333 484.201 101.681L483.893 102.632C485.905 103.284 487.9 103.925 489.878 104.553L490.181 103.6ZM478.121 99.6918C477.1 99.3544 476.074 99.014 475.044 98.6706L474.727 99.6193C475.758 99.963 476.785 100.304 477.808 100.641L478.121 99.6918ZM542.074 79.2967C542.359 77.2796 542.666 75.3078 542.993 73.3808L542.007 73.2133C541.678 75.1497 541.37 77.1307 541.084 79.1568L542.074 79.2967ZM674.765 36.4128C676.151 37.867 677.498 39.3465 678.803 40.8473L679.558 40.1912C678.243 38.6787 676.885 37.188 675.489 35.7228L674.765 36.4128ZM544.037 67.7329C544.411 65.8672 544.806 64.0469 545.221 62.2711L544.247 62.0436C543.83 63.83 543.432 65.6607 543.057 67.5364L544.037 67.7329ZM666.098 28.0975C667.599 29.4151 669.07 30.7648 670.507 32.1428L671.2 31.421C669.752 30.0328 668.27 28.6732 666.757 27.3458L666.098 28.0975ZM656.732 20.5962C658.348 21.7738 659.94 22.9913 661.504 24.2449L662.129 23.4645C660.553 22.2015 658.949 20.9748 657.321 19.7881L656.732 20.5962ZM546.811 56.031C547.369 54.0151 547.956 52.063 548.57 50.1733L547.619 49.8644C547 51.7684 546.409 53.7345 545.847 55.764L546.811 56.031ZM646.73 14.011C648.436 15.0178 650.125 16.0724 651.793 17.1713L652.343 16.3362C650.661 15.2285 648.959 14.1651 647.238 13.1498L646.73 14.011ZM550.491 44.6902C551.167 42.8966 551.871 41.1661 552.599 39.4972L551.683 39.0971C550.947 40.782 550.238 42.5282 549.555 44.3372L550.491 44.6902ZM636.069 8.46306C637.881 9.28067 639.683 10.1573 641.47 11.0888L641.932 10.202C640.129 9.26204 638.31 8.37714 636.48 7.55155L636.069 8.46306ZM555.33 33.7536C556.275 31.9263 557.254 30.1856 558.266 28.5288L557.412 28.0078C556.388 29.6853 555.397 31.4467 554.442 33.2942L555.33 33.7536ZM624.874 4.22972C626.789 4.81207 628.701 5.46759 630.605 6.19165L630.96 5.2569C629.036 4.52512 627.102 3.86221 625.166 3.27299L624.874 4.22972ZM561.394 23.8086C562.623 22.1019 563.891 20.5023 565.195 19.0059L564.441 18.349C563.116 19.8694 561.829 21.4934 560.583 23.2243L561.394 23.8086ZM613.264 1.63268C615.208 1.90538 617.158 2.26374 619.11 2.70293L619.33 1.72731C617.352 1.28239 615.375 0.919038 613.403 0.642375L613.264 1.63268ZM569.347 14.6957C570.771 13.3634 572.23 12.1376 573.72 11.0145L573.118 10.2159C571.599 11.3608 570.113 12.6094 568.664 13.9656L569.347 14.6957ZM601.374 1.08013C603.329 0.976547 605.3 0.974302 607.284 1.06816L607.331 0.0692561C605.316 -0.0260825 603.311 -0.0238948 601.321 0.0815273L601.374 1.08013ZM578.795 7.64812C580.523 6.64862 582.286 5.76983 584.078 5.00643L583.686 4.08639C581.857 4.86564 580.058 5.7626 578.295 6.78251L578.795 7.64812ZM589.639 3.02855C591.549 2.47663 593.487 2.04203 595.447 1.71903L595.284 0.732341C593.287 1.06153 591.31 1.50472 589.361 2.06786L589.639 3.02855ZM323.806 336.274C322.735 336.261 321.656 336.251 320.569 336.243L320.576 335.243C321.664 335.251 322.745 335.261 323.818 335.274L323.806 336.274ZM336.312 336.553C334.287 336.486 332.232 336.429 330.148 336.382L330.17 335.382C332.258 335.429 334.316 335.486 336.345 335.553L336.312 336.553ZM348.117 337.076C346.207 336.969 344.268 336.872 342.301 336.784L342.345 335.785C344.316 335.873 346.259 335.97 348.173 336.077L348.117 337.076ZM360.359 337.925C358.276 337.751 356.154 337.59 353.994 337.442L354.063 336.444C356.227 336.592 358.354 336.754 360.442 336.928L360.359 337.925ZM497.784 192.318C497.423 192.874 497.063 193.429 496.705 193.983L495.865 193.439C496.445 192.543 497.029 191.644 497.615 190.742L498.453 191.287L498.149 191.755L497.784 192.318ZM493.262 199.321C492.127 201.088 491.004 202.844 489.893 204.587L489.05 204.05C490.161 202.305 491.285 200.549 492.421 198.78L493.262 199.321ZM372.411 339.114C370.477 338.892 368.506 338.681 366.497 338.483L366.596 337.488C368.609 337.687 370.586 337.898 372.526 338.121L372.411 339.114ZM486.596 209.782C485.509 211.502 484.434 213.21 483.371 214.907L482.524 214.376C483.588 212.678 484.663 210.969 485.751 209.248L486.596 209.782ZM480.217 219.96C479.178 221.633 478.15 223.295 477.134 224.944L476.283 224.42C477.299 222.769 478.328 221.107 479.368 219.433L480.217 219.96ZM474.121 229.858C473.037 231.634 471.967 233.396 470.91 235.144L470.054 234.627C471.112 232.877 472.182 231.114 473.267 229.337L474.121 229.858ZM467.645 240.576C466.572 242.372 465.513 244.152 464.468 245.919L463.608 245.41C464.653 243.642 465.712 241.86 466.787 240.063L467.645 240.576ZM384.305 340.698C382.284 340.39 380.218 340.096 378.105 339.817L378.236 338.826C380.355 339.105 382.428 339.4 384.455 339.709L384.305 340.698ZM461.379 251.173C460.364 252.91 459.363 254.633 458.376 256.341L457.51 255.84C458.498 254.131 459.499 252.407 460.516 250.669L461.379 251.173ZM455.458 261.421C454.5 263.1 453.556 264.764 452.626 266.415L451.755 265.923C452.686 264.272 453.631 262.606 454.59 260.925L455.458 261.421ZM449.561 271.889C448.526 273.752 447.51 275.596 446.511 277.421L445.634 276.941C446.634 275.114 447.651 273.268 448.687 271.404L449.561 271.889ZM443.569 282.841C442.606 284.629 441.661 286.398 440.733 288.149L439.85 287.681C440.778 285.928 441.724 284.157 442.688 282.367L443.569 282.841ZM396.31 342.798C394.406 342.419 392.454 342.054 390.453 341.704L390.626 340.719C392.634 341.07 394.593 341.437 396.505 341.817L396.31 342.798ZM438.003 293.348C437.111 295.063 436.235 296.759 435.377 298.438L434.487 297.982C435.346 296.302 436.223 294.603 437.116 292.886L438.003 293.348ZM432.534 304.057C431.58 305.963 430.649 307.845 429.74 309.702L428.842 309.263C429.752 307.402 430.684 305.518 431.64 303.61L432.534 304.057ZM427.081 315.203C426.216 317.013 425.374 318.8 424.554 320.562L423.647 320.14C424.469 318.375 425.313 316.585 426.178 314.773L427.081 315.203ZM408.09 345.474C406.085 344.957 404.015 344.458 401.881 343.978L402.1 343.002C404.244 343.485 406.324 343.986 408.34 344.506L408.09 345.474ZM422.157 325.78C421.289 327.696 420.447 329.584 419.632 331.442L418.716 331.04C419.533 329.178 420.376 327.287 421.246 325.367L422.157 325.78ZM417.137 337.231C416.334 339.129 415.559 340.995 414.813 342.83L413.886 342.453C414.635 340.614 415.411 338.743 416.216 336.841L417.137 337.231ZM412.655 348.242C411.924 350.117 411.223 351.958 410.553 353.765L409.615 353.417C410.288 351.605 410.991 349.759 411.724 347.879L412.655 348.242ZM419.474 348.819C417.703 348.227 415.869 347.652 413.972 347.094L414.255 346.135C416.162 346.696 418.007 347.275 419.791 347.87L419.474 348.819ZM408.39 359.764C407.706 361.721 407.059 363.635 406.449 365.507L405.498 365.197C406.111 363.318 406.76 361.397 407.445 359.434L408.39 359.764ZM404.725 370.997C404.11 373.035 403.541 375.018 403.016 376.949L402.051 376.687C402.578 374.747 403.15 372.754 403.767 370.708L404.725 370.997ZM430.948 353.241C429.161 352.446 427.289 351.671 425.331 350.918L425.69 349.984C427.663 350.743 429.551 351.525 431.354 352.327L430.948 353.241ZM401.483 382.95C401.021 384.891 400.607 386.773 400.239 388.597L399.258 388.399C399.629 386.563 400.045 384.67 400.51 382.718L401.483 382.95ZM399.148 394.678C398.823 396.771 398.564 398.778 398.37 400.701L397.375 400.6C397.571 398.658 397.832 396.634 398.16 394.524L399.148 394.678ZM441.625 358.806C439.908 357.753 438.077 356.723 436.128 355.72L436.586 354.831C438.556 355.845 440.408 356.887 442.148 357.954L441.625 358.806ZM397.964 406.514C397.884 408.709 397.9 410.774 398.003 412.714L397.005 412.768C396.9 410.795 396.884 408.7 396.964 406.478L397.964 406.514ZM451.228 365.941C449.775 364.614 448.182 363.309 446.441 362.032L447.032 361.226C448.8 362.523 450.421 363.85 451.903 365.202L451.228 365.941ZM398.633 418.549C398.991 420.665 399.476 422.59 400.074 424.333L399.128 424.657C398.511 422.858 398.013 420.88 397.647 418.716L398.633 418.549ZM458.902 375.029C457.867 373.361 456.658 371.71 455.262 370.084L456.021 369.433C457.449 371.096 458.688 372.788 459.752 374.502L458.902 375.029ZM402.624 429.744C403.737 431.504 405.017 432.968 406.432 434.16L405.787 434.925C404.291 433.663 402.944 432.121 401.779 430.279L402.624 429.744ZM463.294 385.972C462.912 384.075 462.349 382.181 461.588 380.3L462.515 379.925C463.299 381.864 463.88 383.818 464.274 385.774L463.294 385.972ZM411.452 437.105C413.256 437.79 415.186 438.191 417.205 438.331L417.136 439.328C415.029 439.182 413.002 438.763 411.097 438.04L411.452 437.105ZM463.454 397.869C463.778 395.905 463.939 393.921 463.917 391.928L464.917 391.917C464.939 393.971 464.774 396.013 464.441 398.032L463.454 397.869ZM423.159 438.041C425.077 437.742 427.034 437.252 429.003 436.59L429.322 437.537C427.305 438.216 425.292 438.72 423.313 439.029L423.159 438.041ZM459.73 409.237C460.62 407.426 461.386 405.571 462.011 403.684L462.96 403.998C462.32 405.931 461.537 407.828 460.628 409.678L459.73 409.237ZM434.526 434.294C436.285 433.425 438.03 432.431 439.742 431.324L440.285 432.164C438.542 433.29 436.764 434.304 434.969 435.19L434.526 434.294ZM453.188 419.311C454.467 417.754 455.662 416.13 456.756 414.452L457.594 414.998C456.479 416.708 455.263 418.361 453.961 419.946L453.188 419.311ZM444.633 427.782C446.189 426.527 447.695 425.182 449.134 423.758L449.837 424.468C448.375 425.916 446.843 427.284 445.261 428.56L444.633 427.782ZM488.918 582.099C490.833 581.564 492.732 581.016 494.614 580.455L494.9 581.413C493.012 581.976 491.108 582.526 489.187 583.062L488.918 582.099ZM477.234 585.15C479.212 584.668 481.176 584.173 483.123 583.664L483.376 584.632C481.423 585.142 479.454 585.638 477.471 586.122L477.234 585.15ZM500.226 578.725C502.192 578.1 504.138 577.459 506.063 576.804L506.385 577.75C504.454 578.408 502.502 579.051 500.53 579.678L500.226 578.725ZM465.554 587.807C467.485 587.398 469.403 586.977 471.308 586.544L471.53 587.52C469.62 587.953 467.697 588.375 465.761 588.785L465.554 587.807ZM511.776 574.792C513.659 574.106 515.521 573.405 517.361 572.689L517.724 573.621C515.877 574.34 514.008 575.043 512.118 575.731L511.776 574.792ZM453.821 590.12C455.801 589.758 457.769 589.384 459.724 588.999L459.918 589.98C457.957 590.366 455.985 590.741 454.001 591.103L453.821 590.12ZM522.814 570.496C524.683 569.72 526.527 568.927 528.346 568.117L528.753 569.031C526.926 569.844 525.075 570.64 523.198 571.42L522.814 570.496ZM441.847 592.144C443.858 591.831 445.859 591.506 447.848 591.17L448.015 592.156C446.021 592.493 444.016 592.818 442 593.132L441.847 592.144ZM430.1 593.826C432.076 593.567 434.043 593.297 436.001 593.017L436.143 594.007C434.181 594.288 432.21 594.558 430.23 594.817L430.1 593.826ZM533.886 565.563C535.705 564.695 537.497 563.808 539.259 562.905L539.715 563.794C537.944 564.703 536.144 565.593 534.317 566.466L533.886 565.563ZM418.14 595.251C420.15 595.035 422.152 594.808 424.145 594.57L424.263 595.563C422.266 595.801 420.26 596.028 418.247 596.245L418.14 595.251ZM544.46 560.141C546.215 559.174 547.938 558.19 549.629 557.186L550.139 558.046C548.439 559.055 546.706 560.045 544.942 561.017L544.46 560.141ZM406.167 596.404C408.147 596.235 410.12 596.056 412.086 595.867L412.182 596.862C410.212 597.052 408.236 597.231 406.252 597.4L406.167 596.404ZM554.829 553.975C556.527 552.884 558.188 551.773 559.811 550.642L560.383 551.462C558.749 552.601 557.078 553.719 555.37 554.816L554.829 553.975ZM394.253 597.295C396.251 597.166 398.243 597.027 400.229 596.879L400.304 597.876C398.314 598.025 396.319 598.164 394.317 598.293L394.253 597.295ZM382.197 597.948C384.217 597.859 386.232 597.76 388.241 597.651L388.296 598.649C386.283 598.758 384.264 598.857 382.241 598.947L382.197 597.948ZM564.568 547.187C565.342 546.6 566.106 546.009 566.86 545.413L567.481 546.197C566.721 546.798 565.951 547.393 565.172 547.984L564.568 547.187ZM370.232 598.358C372.222 598.309 374.208 598.251 376.19 598.183L376.224 599.182C374.239 599.25 372.25 599.309 370.257 599.358L370.232 598.358ZM358.245 598.54C360.25 598.529 362.252 598.508 364.25 598.477L364.265 599.477C362.264 599.508 360.259 599.529 358.251 599.54L358.245 598.54ZM346.177 598.498C348.194 598.524 350.209 598.54 352.22 598.547L352.217 599.547C350.202 599.54 348.185 599.524 346.165 599.498L346.177 598.498ZM334.219 598.238C336.215 598.299 338.209 598.352 340.2 598.395L340.179 599.395C338.184 599.351 336.187 599.299 334.188 599.237L334.219 598.238ZM322.224 597.761C324.226 597.859 326.227 597.947 328.226 598.027L328.186 599.026C326.184 598.946 324.18 598.858 322.176 598.76L322.224 597.761ZM310.212 597.07C312.214 597.203 314.215 597.327 316.216 597.443L316.158 598.441C314.155 598.326 312.15 598.201 310.146 598.068L310.212 597.07ZM298.253 596.171C300.246 596.338 302.24 596.497 304.233 596.647L304.158 597.644C302.162 597.494 300.166 597.335 298.17 597.167L298.253 596.171ZM286.301 595.06C288.292 595.262 290.283 595.456 292.276 595.641L292.183 596.637C290.188 596.452 288.194 596.258 286.2 596.055L286.301 595.06ZM274.364 593.737C276.352 593.975 278.342 594.205 280.333 594.425L280.223 595.419C278.229 595.198 276.236 594.969 274.245 594.73L274.364 593.737ZM262.444 592.202C264.427 592.475 266.411 592.74 268.398 592.996L268.27 593.988C266.281 593.732 264.293 593.466 262.308 593.193L262.444 592.202ZM250.582 590.457C252.553 590.765 254.528 591.065 256.505 591.356L256.359 592.345C254.379 592.054 252.402 591.754 250.428 591.445L250.582 590.457ZM238.733 588.492C240.71 588.839 242.692 589.177 244.677 589.506L244.514 590.492C242.526 590.163 240.541 589.824 238.56 589.477L238.733 588.492ZM226.904 586.303C228.867 586.686 230.834 587.059 232.806 587.424L232.624 588.407C230.649 588.042 228.678 587.668 226.712 587.285L226.904 586.303ZM215.185 583.902C217.128 584.32 219.076 584.729 221.03 585.129L220.829 586.108C218.873 585.708 216.921 585.298 214.975 584.879L215.185 583.902ZM203.442 581.253C205.4 581.716 207.365 582.169 209.336 582.614L209.116 583.589C207.142 583.144 205.174 582.69 203.212 582.227L203.442 581.253ZM191.77 578.369C193.702 578.868 195.641 579.358 197.586 579.838L197.346 580.809C195.397 580.328 193.455 579.837 191.52 579.337L191.77 578.369ZM180.268 575.266C182.17 575.801 184.08 576.328 185.997 576.845L185.736 577.81C183.816 577.292 181.903 576.765 179.997 576.229L180.268 575.266ZM168.658 571.856C170.58 572.445 172.512 573.024 174.451 573.594L174.17 574.553C172.226 573.982 170.291 573.402 168.366 572.812L168.658 571.856ZM157.239 568.209C159.123 568.836 161.017 569.453 162.92 570.061L162.616 571.013C160.709 570.404 158.811 569.786 156.924 569.158L157.239 568.209ZM145.958 564.297C147.833 564.974 149.72 565.642 151.618 566.3L151.291 567.244C149.389 566.585 147.498 565.916 145.618 565.237L145.958 564.297ZM134.634 560.034C136.497 560.765 138.372 561.485 140.26 562.196L139.907 563.132C138.016 562.42 136.136 561.697 134.269 560.965L134.634 560.034ZM123.612 555.528C125.423 556.299 127.247 557.06 129.084 557.811L128.705 558.737C126.864 557.984 125.035 557.221 123.22 556.448L123.612 555.528ZM112.588 550.629C114.422 551.479 116.271 552.318 118.136 553.146L117.73 554.06C115.861 553.23 114.006 552.388 112.168 551.536L112.588 550.629ZM101.781 545.396C103.549 546.29 105.334 547.173 107.135 548.045L106.7 548.945C104.893 548.071 103.103 547.185 101.33 546.289L101.781 545.396ZM91.2623 539.837C92.9987 540.796 94.754 541.745 96.5275 542.681L96.0605 543.566C94.2815 542.626 92.5207 541.675 90.7786 540.712L91.2623 539.837ZM80.776 533.762C82.4822 534.799 84.2095 535.823 85.9574 536.836L85.4562 537.701C83.7024 536.685 81.969 535.657 80.2568 534.617L80.776 533.762ZM70.7992 527.4C72.4179 528.484 74.0591 529.557 75.7221 530.617L75.1844 531.46C73.5152 530.396 71.8677 529.319 70.2427 528.231L70.7992 527.4ZM60.888 520.399C62.4989 521.6 64.1365 522.788 65.8001 523.963L65.2233 524.78C63.5529 523.6 61.9083 522.407 60.2902 521.201L60.888 520.399ZM51.5484 513.034C53.0497 514.288 54.5791 515.528 56.1359 516.756L55.5167 517.541C53.9527 516.308 52.4159 515.061 50.9073 513.801L51.5484 513.034ZM42.5487 505.034C44.0122 506.421 45.509 507.793 47.0384 509.151L46.3745 509.899C44.8372 508.534 43.3323 507.154 41.8608 505.759L42.5487 505.034ZM34.1747 496.535C35.5014 497.98 36.8631 499.412 38.259 500.828L37.5468 501.53C36.1427 500.105 34.7728 498.665 33.4379 497.211L34.1747 496.535ZM26.4187 487.399C27.6593 488.984 28.9409 490.554 30.2623 492.108L29.5006 492.756C28.1705 491.192 26.8803 489.612 25.6311 488.015L26.4187 487.399ZM19.4739 477.69C20.5468 479.34 21.6627 480.975 22.8205 482.593L22.0073 483.174C20.841 481.545 19.7167 479.898 18.6355 478.235L19.4739 477.69ZM13.4425 467.374C14.367 469.149 15.3397 470.908 16.3596 472.649L15.4967 473.154C14.4686 471.399 13.4879 469.626 12.5555 467.836L13.4425 467.374ZM8.48249 456.518C9.20979 458.361 9.98755 460.188 10.8146 461.997L9.90507 462.413C9.07081 460.588 8.28611 458.745 7.55228 456.885L8.48249 456.518ZM4.72348 445.221C5.24614 447.14 5.8219 449.042 6.4496 450.927L5.50086 451.243C4.8673 449.341 4.28616 447.421 3.75861 445.484L4.72348 445.221ZM2.2337 433.502C2.53946 435.489 2.90054 437.459 3.31586 439.412L2.33776 439.62C1.91849 437.649 1.55392 435.66 1.24534 433.654L2.2337 433.502ZM1.08752 421.729C1.1707 423.71 1.30752 425.675 1.49688 427.624L0.501538 427.72C0.310388 425.753 0.172348 423.77 0.0883996 421.771L1.08752 421.729ZM1.24028 409.655C1.10479 411.699 1.02503 413.727 0.999935 415.74L3.07719e-06 415.727C0.0253335 413.697 0.105815 411.651 0.242494 409.589L1.24028 409.655ZM2.59698 397.992C2.27462 399.939 2.00173 401.873 1.77748 403.794L0.784243 403.678C1.01035 401.741 1.28548 399.792 1.6104 397.829L2.59698 397.992ZM5.1315 386.146C4.60788 388.148 4.13542 390.135 3.71328 392.11L2.73539 391.901C3.16075 389.911 3.6367 387.909 4.16407 385.893L5.1315 386.146ZM8.57216 374.89C7.93017 376.729 7.33058 378.557 6.77274 380.375L5.81677 380.081C6.37837 378.251 6.98193 376.411 7.62805 374.56L8.57216 374.89ZM12.9377 363.726C12.1237 365.608 11.3533 367.48 10.6259 369.34L9.69456 368.976C10.4263 367.104 11.2012 365.222 12.0198 363.329L12.9377 363.726ZM18.104 352.784C17.2022 354.548 16.338 356.302 15.511 358.048L14.6073 357.62C15.4387 355.865 16.3073 354.101 17.2136 352.329L18.104 352.784ZM23.7117 342.538C22.7067 344.262 21.7372 345.978 20.8027 347.686L19.9255 347.206C20.8644 345.49 21.8383 343.766 22.8478 342.034L23.7117 342.538ZM30.17 332.095C29.0217 333.852 27.9096 335.6 26.8333 337.341L25.9828 336.815C27.0635 335.067 28.1801 333.311 29.333 331.548L30.17 332.095ZM36.8601 322.342C35.7413 323.9 34.6506 325.452 33.5877 326.998L32.7637 326.432C33.8304 324.88 34.925 323.322 36.0478 321.758L36.8601 322.342ZM43.9134 312.917C42.6808 314.5 41.4769 316.077 40.3015 317.648L39.5009 317.049C40.6802 315.473 41.8879 313.891 43.1243 312.303L43.9134 312.917ZM51.6553 303.346C50.3069 304.953 48.9877 306.555 47.6974 308.15L46.9199 307.521C48.214 305.921 49.537 304.315 50.8892 302.703L51.6553 303.346ZM59.4757 294.322C58.205 295.743 56.957 297.159 55.7314 298.57L54.9763 297.915C56.2052 296.5 57.4565 295.08 58.7303 293.656L59.4757 294.322ZM67.3719 285.743C66.0103 287.182 64.6715 288.616 63.3555 290.046L62.6197 289.369C63.9389 287.936 65.2808 286.498 66.6455 285.055L67.3719 285.743ZM75.8188 277.052C74.3646 278.51 72.9337 279.963 71.526 281.411L70.8089 280.714C72.2197 279.263 73.6537 277.807 75.1109 276.346L75.8188 277.052ZM84.8209 268.256C83.2741 269.731 81.751 271.201 80.2513 272.666L79.5524 271.951C81.0551 270.482 82.5812 269.01 84.1308 267.532L84.8209 268.256ZM93.1609 260.471C91.7345 261.775 90.3263 263.076 88.9363 264.374L88.2539 263.643C89.6464 262.343 91.0571 261.04 92.4861 259.733L93.1609 260.471ZM101.941 252.602C100.441 253.921 98.9589 255.236 97.4956 256.547L96.8282 255.802C98.2939 254.489 99.7781 253.172 101.281 251.851L101.941 252.602ZM111.166 244.65C109.591 245.983 108.035 247.311 106.498 248.637L105.845 247.879C107.385 246.552 108.943 245.221 110.521 243.887L111.166 244.65ZM120.843 236.616C119.192 237.962 117.561 239.304 115.948 240.643L115.309 239.874C116.924 238.533 118.558 237.189 120.211 235.841L120.843 236.616ZM129.798 229.428C128.287 230.623 126.79 231.814 125.309 233.003L124.683 232.223C126.167 231.033 127.665 229.84 129.178 228.644L129.798 229.428ZM139.043 222.232C137.472 223.436 135.916 224.639 134.375 225.838L133.761 225.049C135.304 223.848 136.862 222.644 138.434 221.438L139.043 222.232ZM148.649 214.972C147.018 216.187 145.402 217.4 143.801 218.61L143.198 217.812C144.8 216.6 146.418 215.386 148.052 214.17L148.649 214.972ZM158.62 207.648C156.928 208.874 155.251 210.097 153.589 211.318L152.997 210.512C154.66 209.29 156.339 208.066 158.034 206.838L158.62 207.648ZM168.562 200.542C166.943 201.685 165.337 202.825 163.744 203.963L163.162 203.149C164.757 202.01 166.365 200.869 167.986 199.725L168.562 200.542ZM178.009 193.957C176.41 195.059 174.823 196.158 173.249 197.256L172.677 196.435C174.253 195.337 175.841 194.236 177.441 193.134L178.009 193.957ZM187.749 187.323C186.101 188.432 184.465 189.54 182.842 190.646L182.279 189.819C183.904 188.713 185.541 187.604 187.19 186.493L187.749 187.323ZM197.786 180.639C196.088 181.757 194.403 182.873 192.73 183.987L192.176 183.155C193.85 182.04 195.537 180.923 197.236 179.804L197.786 180.639ZM208.123 173.907C206.375 175.033 204.64 176.157 202.917 177.279L202.371 176.441C204.095 175.318 205.832 174.194 207.582 173.067L208.123 173.907ZM218.632 167.209C216.878 168.315 215.135 169.42 213.405 170.523L212.867 169.68C214.599 168.576 216.343 167.47 218.099 166.363L218.632 167.209ZM228.358 161.131C226.717 162.147 225.086 163.162 223.465 164.175L222.935 163.327C224.557 162.313 226.189 161.298 227.832 160.281L228.358 161.131ZM238.328 155.015C236.646 156.037 234.974 157.058 233.313 158.078L232.79 157.225C234.452 156.205 236.125 155.184 237.809 154.16L238.328 155.015ZM248.543 148.861C246.82 149.89 245.107 150.917 243.405 151.943L242.889 151.086C244.593 150.06 246.307 149.032 248.031 148.002L248.543 148.861ZM259.006 142.668C257.242 143.703 255.488 144.737 253.744 145.769L253.234 144.909C254.979 143.876 256.735 142.841 258.5 141.806L259.006 142.668ZM269.718 136.438C267.912 137.479 266.116 138.519 264.331 139.558L263.828 138.693C265.615 137.654 267.411 136.613 269.219 135.571L269.718 136.438ZM277.918 131.739C276.999 132.263 276.082 132.785 275.168 133.308L274.672 132.44C275.586 131.917 276.503 131.394 277.423 130.87L277.918 131.739ZM456.188 71.0532L442.512 81.0708L433.432 77.4938C432.768 77.2325 432.029 77.2454 431.375 77.5296C430.721 77.8138 430.207 78.3461 429.946 79.0092C429.685 79.6724 429.698 80.4122 429.982 81.0658C430.266 81.7195 430.798 82.2335 431.462 82.4947L440.542 86.0717L443.711 102.726L447.045 104.039L448.086 89.0439L457.021 92.5637L457.83 98.6594L460.331 99.6444L461.619 91.4863L466.241 84.6416L463.74 83.6565L458.993 87.5634L450.058 84.0436L459.522 72.3665L456.188 71.0532ZM295.952 334.092L305.005 319.759H308.588L304.062 334.092H313.666L316.651 328.717H319.338L317.547 336.779L319.338 344.842H316.651L313.664 339.467H304.061L308.588 353.8H305.005L295.952 339.467H286.192C285.48 339.467 284.796 339.184 284.292 338.68C283.788 338.176 283.505 337.492 283.505 336.779C283.505 336.067 283.788 335.383 284.292 334.879C284.796 334.375 285.48 334.092 286.192 334.092H295.952ZM307.317 135.274L307.554 118.322L315.877 113.227C316.485 112.855 316.92 112.256 317.087 111.563C317.254 110.87 317.138 110.139 316.766 109.532C316.394 108.924 315.796 108.488 315.103 108.322C314.41 108.155 313.679 108.271 313.071 108.643L304.748 113.738L289.543 106.241L286.486 108.112L297.832 117.972L289.641 122.986L284.288 119.962L281.995 121.365L287.733 127.306L290.415 135.117L292.707 133.714L292.446 127.571L300.637 122.557L304.26 137.145L307.317 135.274Z" fill="white"/>
</svg>
