<svg width="31" height="27" viewBox="0 0 31 27" fill="none" xmlns="http://www.w3.org/2000/svg">
<path d="M12.1666 0.666626C10.6638 0.666626 9.22241 1.26365 8.15971 2.32635C7.097 3.38906 6.49998 4.8304 6.49998 6.33329C6.49998 7.83619 7.097 9.27752 8.15971 10.3402C9.22241 11.4029 10.6638 12 12.1666 12C13.6695 12 15.1109 11.4029 16.1736 10.3402C17.2363 9.27752 17.8333 7.83619 17.8333 6.33329C17.8333 4.8304 17.2363 3.38906 16.1736 2.32635C15.1109 1.26365 13.6695 0.666626 12.1666 0.666626ZM22.0833 12C21.8991 12 21.7433 12.1275 21.715 12.2975L21.4458 14.1675C21.0208 14.3516 20.61 14.5783 20.2416 14.8333L18.485 14.125C18.3291 14.125 18.145 14.125 18.0458 14.3091L16.6291 16.76C16.5441 16.9158 16.5725 17.1 16.7141 17.2133L18.2158 18.375C18.1875 18.6158 18.1733 18.8425 18.1733 19.0833C18.1733 19.3241 18.1875 19.5508 18.2158 19.7916L16.7141 20.9533C16.5866 21.0666 16.5441 21.2508 16.6291 21.4066L18.0458 23.8575C18.1308 24.0416 18.315 24.0416 18.485 24.0416L20.2416 23.3333C20.61 23.5883 21.0066 23.8291 21.4458 23.9991L21.715 25.8691C21.7433 26.0391 21.885 26.1666 22.0833 26.1666H24.9166C25.0725 26.1666 25.2283 26.0391 25.2566 25.8691L25.5258 23.9991C25.9508 23.815 26.3333 23.5883 26.7158 23.3333L28.4583 24.0416C28.6425 24.0416 28.8266 24.0416 28.9258 23.8575L30.3425 21.4066C30.4275 21.2508 30.385 21.0666 30.2575 20.9533L28.7416 19.7916C28.77 19.5508 28.7983 19.3241 28.7983 19.0833C28.7983 18.8425 28.7841 18.6158 28.7416 18.375L30.2433 17.2133C30.3708 17.1 30.4133 16.9158 30.3283 16.76L28.9116 14.3091C28.8266 14.125 28.6425 14.125 28.4583 14.125L26.7158 14.8333C26.3333 14.5783 25.9508 14.3375 25.5116 14.1675L25.2425 12.2975C25.2283 12.1275 25.0725 12 24.9166 12H22.0833ZM12.1666 14.8333C5.90498 14.8333 0.833313 17.3691 0.833313 20.5V23.3333H14.5466C13.9144 22.0056 13.5853 20.5539 13.5833 19.0833C13.5862 17.66 13.8954 16.254 14.49 14.9608C13.7391 14.8758 12.96 14.8333 12.1666 14.8333ZM23.5 16.9583C24.6758 16.9583 25.625 17.9075 25.625 19.0833C25.625 20.2591 24.6758 21.2083 23.5 21.2083C22.31 21.2083 21.375 20.2591 21.375 19.0833C21.375 17.9075 22.3241 16.9583 23.5 16.9583Z" fill="#B21E23"/>
</svg>
