<svg width="28" height="28" viewBox="0 0 25 29" fill="none" xmlns="http://www.w3.org/2000/svg">
<path d="M12.5 19.8751C6.05416 19.8751 0.833328 22.4855 0.833328 25.7084V28.6251H24.1667V25.7084C24.1667 22.4855 18.9458 19.8751 12.5 19.8751ZM6.66666 11.1251C6.66666 12.6722 7.28124 14.1559 8.37521 15.2499C9.46917 16.3438 10.9529 16.9584 12.5 16.9584C14.0471 16.9584 15.5308 16.3438 16.6248 15.2499C17.7187 14.1559 18.3333 12.6722 18.3333 11.1251M11.7708 0.916748C11.3333 0.916748 11.0417 1.223 11.0417 1.64591V6.02091H9.58333V2.37508C9.58333 2.37508 6.30208 3.62925 6.30208 7.84383C6.30208 7.84383 5.20833 8.048 5.20833 9.66675H19.7917C19.7187 8.048 18.6979 7.84383 18.6979 7.84383C18.6979 3.62925 15.4167 2.37508 15.4167 2.37508V6.02091H13.9583V1.64591C13.9583 1.223 13.6812 0.916748 13.2292 0.916748H11.7708Z" fill="#B21E23"/>
</svg>
