<svg width="29" height="36" viewBox="0 0 29 36" fill="none" xmlns="http://www.w3.org/2000/svg">
<path d="M14.5 35.5C10.4458 34.4792 7.09925 32.1528 4.46025 28.521C1.82008 24.8903 0.5 20.8583 0.5 16.425V5.75L14.5 0.5L28.5 5.75V16.425C28.5 20.8583 27.1805 24.8903 24.5415 28.521C21.9013 32.1528 18.5542 34.4792 14.5 35.5ZM14.5 13.6687L4.7 21.2812C5.25417 23.1187 6.07083 24.7882 7.15 26.2897C8.22917 27.7924 9.5125 29.0542 11 30.075V23.25H18V30.075C19.4875 29.0542 20.7708 27.7924 21.85 26.2897C22.9292 24.7882 23.7458 23.1187 24.3 21.2812L14.5 13.6687ZM14.5 4.21875L4 8.15625V16.425C4 16.5708 4.00758 16.7313 4.02275 16.9062C4.03675 17.0812 4.04375 17.2417 4.04375 17.3875L14.5 9.25L24.9563 17.3875C24.9563 17.2417 24.9638 17.0812 24.979 16.9062C24.993 16.7313 25 16.5708 25 16.425V8.15625L14.5 4.21875Z" fill="#B21E23"/>
</svg>
