<svg width="833" height="562" viewBox="0 0 833 562" fill="none" xmlns="http://www.w3.org/2000/svg">
<path fill-rule="evenodd" clip-rule="evenodd" d="M755.824 511.069C755.482 510.061 755.141 509.055 754.801 508.051L753.854 508.372C754.053 508.959 754.252 509.548 754.452 510.137C754.593 510.554 754.735 510.972 754.877 511.39L755.824 511.069ZM752.775 502.049C752.104 500.056 751.438 498.07 750.777 496.092L749.828 496.409C750.49 498.388 751.156 500.374 751.827 502.368L752.775 502.049ZM748.807 490.178C748.154 488.215 747.507 486.258 746.864 484.309L745.914 484.622C746.557 486.572 747.205 488.529 747.857 490.494L748.807 490.178ZM744.949 478.484C744.315 476.549 743.686 474.622 743.061 472.702L742.11 473.011C742.735 474.932 743.365 476.86 743.999 478.795L744.949 478.484ZM741.201 466.964C740.585 465.058 739.974 463.16 739.368 461.269L738.416 461.574C739.022 463.466 739.634 465.365 740.249 467.271L741.201 466.964ZM737.562 455.617C736.964 453.741 736.371 451.871 735.783 450.009L734.829 450.311C735.418 452.173 736.011 454.044 736.609 455.921L737.562 455.617ZM734.03 444.444C733.45 442.596 732.875 440.755 732.304 438.921L731.349 439.219C731.92 441.053 732.496 442.895 733.076 444.743L734.03 444.444ZM730.605 433.442C730.043 431.622 729.485 429.81 728.932 428.004L727.976 428.298C728.529 430.104 729.087 431.917 729.649 433.737L730.605 433.442ZM727.195 422.314C726.576 420.277 725.963 418.249 725.355 416.231L724.398 416.519C725.006 418.538 725.619 420.567 726.238 422.605L727.195 422.314ZM723.549 410.202C722.952 408.202 722.361 406.21 721.776 404.228L720.817 404.511C721.403 406.494 721.994 408.487 722.591 410.488L723.549 410.202ZM720.036 398.308C719.462 396.343 718.893 394.388 718.329 392.442L717.369 392.72C717.933 394.667 718.502 396.623 719.076 398.589L720.036 398.308ZM716.656 386.629C716.103 384.7 715.556 382.781 715.014 380.87L714.052 381.143C714.594 383.054 715.141 384.975 715.694 386.904L716.656 386.629ZM713.405 375.164C712.875 373.271 712.349 371.387 711.829 369.511L710.865 369.778C711.386 371.655 711.911 373.54 712.443 375.434L713.405 375.164ZM710.284 363.911C709.775 362.053 709.271 360.204 708.772 358.364L707.807 358.625C708.306 360.467 708.81 362.317 709.32 364.176L710.284 363.911ZM707.291 352.869C706.793 351.012 706.301 349.163 705.814 347.324L704.848 347.58C705.335 349.42 705.827 351.269 706.325 353.128L707.291 352.869ZM704.19 341.142C703.655 339.093 703.128 337.055 702.606 335.028L701.638 335.277C702.159 337.305 702.687 339.344 703.222 341.395L704.19 341.142ZM701.064 328.982C700.556 326.978 700.055 324.985 699.561 323.003L698.591 323.245C699.085 325.228 699.586 327.222 700.094 329.228L701.064 328.982ZM698.099 317.092C697.618 315.133 697.144 313.185 696.676 311.248L695.704 311.482C696.172 313.421 696.646 315.37 697.128 317.331L698.099 317.092ZM695.293 305.47C694.838 303.555 694.391 301.651 693.949 299.758L692.975 299.986C693.417 301.88 693.865 303.785 694.32 305.701L695.293 305.47ZM692.644 294.113C692.215 292.242 691.793 290.382 691.378 288.533L690.402 288.752C690.818 290.603 691.24 292.464 691.669 294.336L692.644 294.113ZM690.15 283.018C689.71 281.027 689.279 279.048 688.854 277.082L687.877 277.293C688.302 279.261 688.734 281.241 689.173 283.234L690.15 283.018ZM687.526 270.851C687.092 268.789 686.665 266.741 686.248 264.707L685.268 264.908C685.686 266.944 686.113 268.993 686.547 271.058L687.526 270.851ZM685.019 258.649C684.618 256.644 684.225 254.653 683.84 252.676L682.859 252.867C683.244 254.845 683.637 256.838 684.039 258.845L685.019 258.649ZM682.71 246.788C682.341 244.839 681.981 242.905 681.628 240.984L680.645 241.165C680.998 243.087 681.359 245.023 681.727 246.974L682.71 246.788ZM680.595 235.265C680.258 233.372 679.93 231.493 679.609 229.629L678.623 229.798C678.944 231.665 679.273 233.545 679.61 235.44L680.595 235.265ZM678.67 224.075C678.333 222.051 678.007 220.043 677.689 218.052L676.702 218.21C677.019 220.203 677.347 222.213 677.683 224.239L678.67 224.075ZM676.707 211.752C676.39 209.67 676.084 207.608 675.788 205.563L674.798 205.707C675.095 207.753 675.401 209.819 675.719 211.902L676.707 211.752ZM674.931 199.486C674.655 197.478 674.39 195.489 674.135 193.518L673.143 193.647C673.399 195.62 673.664 197.612 673.94 199.622L674.931 199.486ZM673.4 187.661C673.165 185.726 672.939 183.81 672.724 181.911L671.731 182.024C671.946 183.925 672.172 185.844 672.407 187.781L673.4 187.661ZM672.108 176.27C671.909 174.378 671.72 172.505 671.541 170.65L670.546 170.746C670.725 172.604 670.914 174.48 671.113 176.375L672.108 176.27ZM795.863 129.712C793.869 130.204 791.781 130.645 789.596 131.034L789.771 132.019C791.977 131.626 794.086 131.18 796.102 130.683L795.863 129.712ZM806.749 126.174C805.112 126.859 803.384 127.499 801.562 128.092L801.872 129.043C803.718 128.442 805.471 127.792 807.135 127.096L806.749 126.174ZM784.024 131.883C782.177 132.12 780.268 132.323 778.297 132.491L778.381 133.487C780.366 133.319 782.289 133.114 784.151 132.875L784.024 131.883ZM670.955 164.22C670.773 162.101 670.604 160.008 670.448 157.938L669.451 158.013C669.607 160.086 669.776 162.183 669.959 164.305L670.955 164.22ZM817.322 120.272C815.828 121.379 814.203 122.428 812.442 123.414L812.931 124.286C814.726 123.281 816.387 122.209 817.917 121.075L817.322 120.272ZM772.194 132.886C770.096 132.982 767.935 133.04 765.709 133.061L765.718 134.061C767.956 134.04 770.129 133.981 772.239 133.885L772.194 132.886ZM825.565 111.867C824.47 113.453 823.21 114.975 821.778 116.424L822.489 117.127C823.961 115.638 825.259 114.071 826.388 112.435L825.565 111.867ZM760.102 133.034C758.243 133 756.343 132.941 754.4 132.857L754.357 133.856C756.308 133.941 758.216 134 760.083 134.034L760.102 133.034ZM748.444 132.526C746.416 132.39 744.345 132.228 742.231 132.039L742.142 133.035C744.263 133.225 746.342 133.388 748.377 133.524L748.444 132.526ZM670.021 151.804C669.891 149.784 669.774 147.788 669.671 145.816L668.672 145.868C668.776 147.844 668.893 149.844 669.023 151.868L670.021 151.804ZM830.349 101.197C829.875 103.121 829.236 104.992 828.425 106.798L829.337 107.208C830.174 105.345 830.832 103.417 831.32 101.436L830.349 101.197ZM735.756 131.39C733.932 131.188 732.079 130.967 730.195 130.728L730.068 131.72C731.958 131.96 733.817 132.181 735.646 132.384L735.756 131.39ZM724.569 129.967C722.665 129.695 720.73 129.404 718.766 129.093L718.61 130.081C720.579 130.392 722.518 130.684 724.428 130.957L724.569 129.967ZM712.783 128.105C710.758 127.756 708.703 127.387 706.617 126.998L706.434 127.982C708.524 128.371 710.583 128.74 712.613 129.09L712.783 128.105ZM831.325 89.4614C831.448 91.4709 831.435 93.4476 831.281 95.3828L832.278 95.4623C832.436 93.4775 832.448 91.4539 832.323 89.4007L831.325 89.4614ZM669.397 139.972C669.318 138.048 669.252 136.148 669.198 134.271L668.198 134.3C668.252 136.18 668.319 138.085 668.398 140.013L669.397 139.972ZM700.268 125.773C698.411 125.402 696.53 125.016 694.627 124.615L694.42 125.594C696.327 125.996 698.211 126.382 700.072 126.754L700.268 125.773ZM689.109 123.423C687.248 123.012 685.366 122.586 683.462 122.146L683.237 123.12C685.144 123.561 687.029 123.987 688.893 124.4L689.109 123.423ZM669.073 128.712C669.038 126.542 669.021 124.405 669.019 122.3L668.019 122.3C668.021 124.41 668.038 126.553 668.073 128.728L669.073 128.712ZM829.241 77.7785C829.795 79.7073 830.248 81.6228 830.594 83.5183L831.578 83.3388C831.226 81.4087 830.765 79.4609 830.202 77.5023L829.241 77.7785ZM677.686 120.782C675.739 120.313 673.769 119.829 671.778 119.331L671.535 120.301C673.529 120.8 675.501 121.285 677.452 121.754L677.686 120.782ZM665.739 117.79C663.703 117.262 661.645 116.718 659.565 116.16L659.306 117.125C661.389 117.685 663.449 118.229 665.487 118.758L665.739 117.79ZM824.99 66.6103C825.835 68.4055 826.604 70.2011 827.293 71.9916L828.226 71.6326C827.528 69.8184 826.75 68.0006 825.895 66.1846L824.99 66.6103ZM669.067 115.999C669.1 113.932 669.15 111.898 669.216 109.897L668.216 109.864C668.15 111.871 668.1 113.911 668.067 115.983L669.067 115.999ZM653.613 114.536C651.831 114.043 650.033 113.538 648.219 113.023L647.946 113.985C649.762 114.501 651.562 115.006 653.346 115.5L653.613 114.536ZM642.729 111.444C640.883 110.907 639.021 110.358 637.142 109.799L636.857 110.757C638.737 111.317 640.602 111.866 642.45 112.404L642.729 111.444ZM669.463 103.991C669.562 102.055 669.677 100.151 669.807 98.2791L668.809 98.2096C668.678 100.088 668.563 101.998 668.464 103.94L669.463 103.991ZM819.181 56.0857C820.262 57.7922 821.281 59.5091 822.235 61.2314L823.11 60.7469C822.146 59.0068 821.117 57.2732 820.026 55.5508L819.181 56.0857ZM631.458 108.086C629.547 107.504 627.62 106.91 625.676 106.305L625.379 107.26C627.325 107.865 629.254 108.46 631.167 109.042L631.458 108.086ZM670.245 92.759C670.441 90.5734 670.659 88.4339 670.898 86.3398L669.905 86.226C669.664 88.3286 669.445 90.4763 669.249 92.6699L670.245 92.759ZM812.21 46.275C813.476 47.8784 814.694 49.5007 815.857 51.1373L816.672 50.558C815.499 48.9072 814.271 47.2714 812.994 45.655L812.21 46.275ZM671.688 80.1516C671.973 78.1345 672.28 76.1628 672.607 74.2357L671.621 74.0683C671.292 76.0047 670.984 77.9857 670.698 80.0117L671.688 80.1516ZM804.379 37.2678C805.765 38.722 807.112 40.2015 808.417 41.7023L809.172 41.0462C807.857 39.5337 806.499 38.043 805.103 36.5778L804.379 37.2678ZM673.651 68.5879C674.025 66.7222 674.42 64.9019 674.835 63.1261L673.861 62.8986C673.444 64.685 673.047 66.5156 672.671 68.3914L673.651 68.5879ZM795.712 28.9525C797.214 30.2701 798.685 31.6197 800.122 32.9978L800.814 32.276C799.366 30.8878 797.884 29.5281 796.371 28.2008L795.712 28.9525ZM786.346 21.4512C787.962 22.6288 789.554 23.8462 791.118 25.0998L791.744 24.3195C790.167 23.0565 788.563 21.8298 786.935 20.6431L786.346 21.4512ZM676.425 56.886C676.983 54.8701 677.57 52.918 678.184 51.0283L677.233 50.7194C676.614 52.6234 676.023 54.5895 675.461 56.6189L676.425 56.886ZM776.344 14.866C778.05 15.8727 779.739 16.9274 781.407 18.0263L781.957 17.1911C780.276 16.0835 778.573 15.0201 776.853 14.0048L776.344 14.866ZM680.105 45.5452C680.782 43.7516 681.485 42.0211 682.214 40.3522L681.297 39.9521C680.561 41.637 679.852 43.3832 679.169 45.1921L680.105 45.5452ZM765.683 9.31804C767.495 10.1356 769.297 11.0123 771.084 11.9438L771.547 11.057C769.743 10.117 767.924 9.23212 766.094 8.40653L765.683 9.31804ZM684.944 34.6086C685.889 32.7813 686.869 31.0405 687.88 29.3838L687.027 28.8627C686.002 30.5403 685.011 32.3017 684.056 34.1492L684.944 34.6086ZM754.489 5.0847C756.403 5.66705 758.315 6.32257 760.219 7.04663L760.575 6.11188C758.65 5.38011 756.717 4.71719 754.78 4.12797L754.489 5.0847ZM691.008 24.6636C692.237 22.9569 693.505 21.3572 694.809 19.8609L694.055 19.2039C692.73 20.7243 691.443 22.3483 690.197 24.0793L691.008 24.6636ZM742.878 2.48766C744.822 2.76036 746.772 3.11872 748.725 3.55791L748.944 2.58229C746.966 2.13737 744.989 1.77402 743.017 1.49736L742.878 2.48766ZM698.961 15.5507C700.385 14.2183 701.844 12.9926 703.334 11.8695L702.732 11.0708C701.213 12.2157 699.727 13.4644 698.278 14.8206L698.961 15.5507ZM730.988 1.93511C732.943 1.83153 734.915 1.82928 736.898 1.92314L736.945 0.924237C734.93 0.828898 732.925 0.831086 730.935 0.936508L730.988 1.93511ZM708.409 8.5031C710.137 7.5036 711.9 6.62481 713.692 5.86141L713.3 4.94137C711.471 5.72062 709.672 6.61758 707.909 7.63749L708.409 8.5031ZM719.253 3.88353C721.163 3.33161 723.101 2.89701 725.061 2.57401L724.899 1.58732C722.901 1.91651 720.925 2.3597 718.975 2.92284L719.253 3.88353ZM324.636 297.969C323.565 297.956 322.486 297.946 321.399 297.939L321.406 296.939C322.494 296.946 323.575 296.956 324.648 296.969L324.636 297.969ZM337.142 298.248C335.117 298.181 333.062 298.124 330.978 298.077L331 297.077C333.088 297.124 335.146 297.181 337.175 297.248L337.142 298.248ZM348.947 298.771C347.037 298.664 345.098 298.567 343.131 298.48L343.175 297.481C345.146 297.568 347.089 297.665 349.002 297.773L348.947 298.771ZM361.189 299.62C359.106 299.446 356.984 299.285 354.824 299.137L354.893 298.139C357.057 298.288 359.184 298.449 361.272 298.623L361.189 299.62ZM499.283 152.982C498.697 153.884 498.114 154.782 497.535 155.678L496.695 155.135C497.275 154.238 497.858 153.339 498.445 152.437L499.283 152.982ZM494.092 161.016C492.957 162.783 491.834 164.539 490.723 166.282L489.88 165.745C490.991 164 492.115 162.244 493.251 160.476L494.092 161.016ZM373.241 300.81C371.307 300.587 369.336 300.376 367.327 300.178L367.426 299.183C369.439 299.382 371.416 299.593 373.356 299.816L373.241 300.81ZM487.426 171.477C486.339 173.197 485.264 174.905 484.201 176.602L483.354 176.071C484.418 174.373 485.493 172.664 486.581 170.943L487.426 171.477ZM481.047 181.656C480.008 183.329 478.98 184.99 477.964 186.639L477.113 186.115C478.129 184.464 479.158 182.802 480.198 181.128L481.047 181.656ZM474.951 191.554C473.867 193.329 472.797 195.091 471.74 196.839L470.884 196.322C471.942 194.573 473.012 192.809 474.097 191.033L474.951 191.554ZM468.475 202.271C467.401 204.067 466.343 205.848 465.298 207.614L464.437 207.105C465.483 205.337 466.542 203.555 467.617 201.758L468.475 202.271ZM385.134 302.393C383.114 302.085 381.048 301.791 378.935 301.512L379.066 300.521C381.185 300.801 383.258 301.095 385.285 301.404L385.134 302.393ZM462.209 212.869C461.193 214.606 460.192 216.328 459.206 218.036L458.34 217.536C459.327 215.826 460.329 214.102 461.345 212.364L462.209 212.869ZM456.288 223.116C455.33 224.795 454.386 226.46 453.456 228.11L452.584 227.619C453.516 225.967 454.461 224.301 455.42 222.62L456.288 223.116ZM450.391 233.585C449.356 235.447 448.34 237.291 447.341 239.116L446.464 238.636C447.463 236.809 448.481 234.963 449.517 233.099L450.391 233.585ZM444.399 244.536C443.436 246.324 442.491 248.093 441.563 249.845L440.68 249.377C441.608 247.623 442.554 245.852 443.518 244.062L444.399 244.536ZM397.14 304.493C395.236 304.114 393.284 303.749 391.283 303.399L391.455 302.414C393.464 302.765 395.423 303.132 397.335 303.513L397.14 304.493ZM438.833 255.043C437.941 256.758 437.065 258.454 436.207 260.133L435.317 259.677C436.176 257.997 437.053 256.298 437.946 254.581L438.833 255.043ZM433.364 265.752C432.41 267.658 431.479 269.54 430.57 271.397L429.672 270.958C430.582 269.098 431.514 267.213 432.469 265.305L433.364 265.752ZM427.911 276.899C427.046 278.709 426.204 280.495 425.384 282.257L424.477 281.835C425.299 280.07 426.142 278.281 427.008 276.468L427.911 276.899ZM408.92 307.169C406.914 306.652 404.845 306.153 402.711 305.673L402.93 304.697C405.074 305.18 407.154 305.681 409.17 306.201L408.92 307.169ZM422.987 287.475C422.119 289.392 421.277 291.279 420.462 293.137L419.546 292.736C420.363 290.873 421.206 288.982 422.076 287.063L422.987 287.475ZM417.967 298.926C417.164 300.824 416.389 302.69 415.642 304.525L414.716 304.148C415.465 302.309 416.241 300.438 417.046 298.536L417.967 298.926ZM413.485 309.938C412.754 311.813 412.053 313.653 411.382 315.46L410.445 315.112C411.118 313.3 411.821 311.454 412.554 309.574L413.485 309.938ZM420.304 310.514C418.532 309.922 416.699 309.347 414.802 308.79L415.084 307.83C416.992 308.391 418.837 308.97 420.62 309.565L420.304 310.514ZM409.219 321.459C408.536 323.416 407.889 325.33 407.279 327.202L406.328 326.892C406.941 325.013 407.59 323.093 408.275 321.129L409.219 321.459ZM405.554 332.692C404.94 334.73 404.371 336.713 403.846 338.644L402.881 338.382C403.408 336.442 403.98 334.449 404.597 332.403L405.554 332.692ZM431.778 314.936C429.99 314.141 428.119 313.366 426.161 312.613L426.52 311.68C428.493 312.439 430.381 313.22 432.184 314.022L431.778 314.936ZM402.313 344.645C401.85 346.586 401.436 348.468 401.069 350.292L400.088 350.094C400.459 348.258 400.875 346.365 401.34 344.413L402.313 344.645ZM399.978 356.373C399.652 358.466 399.394 360.473 399.2 362.396L398.205 362.295C398.401 360.354 398.662 358.329 398.99 356.219L399.978 356.373ZM442.455 320.501C440.738 319.448 438.907 318.418 436.958 317.415L437.416 316.526C439.386 317.54 441.238 318.582 442.978 319.649L442.455 320.501ZM398.794 368.21C398.714 370.404 398.73 372.469 398.833 374.41L397.835 374.463C397.73 372.49 397.714 370.395 397.794 368.173L398.794 368.21ZM452.058 327.636C450.605 326.309 449.012 325.005 447.271 323.728L447.862 322.921C449.63 324.218 451.251 325.545 452.732 326.897L452.058 327.636ZM399.463 380.244C399.821 382.36 400.306 384.285 400.904 386.028L399.958 386.352C399.341 384.553 398.843 382.575 398.477 380.411L399.463 380.244ZM459.732 336.724C458.697 335.056 457.488 333.405 456.092 331.779L456.851 331.128C458.279 332.791 459.518 334.484 460.581 336.197L459.732 336.724ZM403.454 391.44C404.567 393.199 405.847 394.663 407.262 395.855L406.617 396.62C405.121 395.359 403.774 393.816 402.609 391.974L403.454 391.44ZM464.123 347.667C463.741 345.771 463.178 343.876 462.418 341.995L463.345 341.62C464.129 343.559 464.71 345.513 465.104 347.469L464.123 347.667ZM412.281 398.8C414.086 399.485 416.016 399.886 418.035 400.026L417.966 401.023C415.859 400.878 413.832 400.458 411.927 399.735L412.281 398.8ZM464.284 359.564C464.608 357.6 464.768 355.616 464.747 353.623L465.747 353.612C465.769 355.666 465.604 357.708 465.271 359.727L464.284 359.564ZM423.989 399.737C425.907 399.437 427.864 398.948 429.833 398.285L430.152 399.233C428.134 399.912 426.122 400.416 424.143 400.725L423.989 399.737ZM460.56 370.932C461.45 369.121 462.216 367.266 462.841 365.379L463.79 365.693C463.15 367.626 462.367 369.523 461.458 371.373L460.56 370.932ZM435.356 395.989C437.115 395.12 438.86 394.126 440.572 393.02L441.115 393.859C439.372 394.986 437.593 395.999 435.799 396.885L435.356 395.989ZM454.018 381.006C455.297 379.449 456.492 377.825 457.586 376.148L458.424 376.694C457.309 378.403 456.092 380.056 454.791 381.641L454.018 381.006ZM445.463 389.477C447.019 388.222 448.525 386.877 449.964 385.453L450.667 386.163C449.204 387.611 447.673 388.979 446.091 390.256L445.463 389.477ZM489.748 543.794C491.663 543.259 493.562 542.711 495.444 542.15L495.73 543.108C493.842 543.671 491.937 544.221 490.017 544.758L489.748 543.794ZM478.064 546.845C480.042 546.363 482.005 545.868 483.953 545.359L484.206 546.327C482.253 546.837 480.284 547.333 478.3 547.817L478.064 546.845ZM501.056 540.421C503.022 539.795 504.968 539.154 506.893 538.499L507.215 539.445C505.284 540.103 503.331 540.746 501.36 541.373L501.056 540.421ZM466.384 549.502C468.315 549.093 470.233 548.672 472.138 548.24L472.36 549.215C470.45 549.649 468.527 550.07 466.591 550.48L466.384 549.502ZM512.606 536.487C514.489 535.801 516.351 535.1 518.191 534.385L518.554 535.316C516.707 536.035 514.838 536.738 512.948 537.427L512.606 536.487ZM454.651 551.815C456.631 551.453 458.598 551.079 460.554 550.694L460.747 551.675C458.787 552.061 456.815 552.436 454.831 552.798L454.651 551.815ZM523.644 532.192C525.513 531.415 527.357 530.622 529.176 529.812L529.583 530.726C527.756 531.539 525.904 532.335 524.028 533.115L523.644 532.192ZM442.676 553.839C444.688 553.526 446.689 553.201 448.678 552.865L448.845 553.851C446.851 554.188 444.846 554.513 442.83 554.827L442.676 553.839ZM430.93 555.521C432.906 555.262 434.873 554.993 436.831 554.712L436.973 555.702C435.011 555.983 433.04 556.253 431.06 556.513L430.93 555.521ZM534.716 527.258C536.535 526.39 538.326 525.503 540.089 524.6L540.545 525.49C538.774 526.398 536.974 527.288 535.147 528.161L534.716 527.258ZM418.97 556.946C420.98 556.73 422.982 556.503 424.975 556.265L425.093 557.258C423.096 557.496 421.09 557.724 419.076 557.94L418.97 556.946ZM545.29 521.836C547.044 520.87 548.768 519.885 550.459 518.881L550.969 519.741C549.269 520.75 547.536 521.74 545.772 522.712L545.29 521.836ZM406.997 558.099C408.977 557.93 410.95 557.751 412.916 557.562L413.012 558.557C411.042 558.747 409.066 558.926 407.082 559.095L406.997 558.099ZM555.659 515.67C557.357 514.58 559.018 513.469 560.641 512.337L561.213 513.158C559.579 514.296 557.907 515.414 556.2 516.512L555.659 515.67ZM395.083 558.99C397.081 558.861 399.073 558.723 401.059 558.574L401.133 559.571C399.144 559.72 397.148 559.859 395.147 559.988L395.083 558.99ZM383.027 559.643C385.047 559.554 387.062 559.455 389.071 559.346L389.125 560.344C387.113 560.453 385.094 560.553 383.071 560.642L383.027 559.643ZM565.398 508.882C566.172 508.296 566.936 507.704 567.69 507.108L568.311 507.892C567.551 508.493 566.781 509.089 566.002 509.679L565.398 508.882ZM371.062 560.053C373.052 560.004 375.038 559.946 377.02 559.878L377.054 560.877C375.069 560.945 373.08 561.004 371.087 561.053L371.062 560.053ZM359.075 560.235C361.08 560.224 363.082 560.203 365.08 560.172L365.095 561.172C363.094 561.203 361.089 561.224 359.081 561.235L359.075 560.235ZM347.007 560.193C349.024 560.219 351.039 560.235 353.05 560.242L353.047 561.242C351.032 561.235 349.015 561.219 346.994 561.193L347.007 560.193ZM335.049 559.933C337.044 559.994 339.038 560.047 341.03 560.09L341.009 561.09C339.014 561.046 337.017 560.994 335.018 560.932L335.049 559.933ZM323.054 559.457C325.056 559.554 327.057 559.642 329.056 559.722L329.016 560.721C327.014 560.641 325.01 560.553 323.005 560.455L323.054 559.457ZM311.042 558.766C313.044 558.899 315.045 559.023 317.045 559.138L316.988 560.136C314.985 560.021 312.98 559.897 310.976 559.763L311.042 558.766ZM299.083 557.866C301.076 558.033 303.07 558.192 305.063 558.342L304.988 559.339C302.992 559.189 300.995 559.03 299 558.862L299.083 557.866ZM287.131 556.755C289.122 556.958 291.113 557.151 293.105 557.337L293.013 558.332C291.018 558.147 289.023 557.953 287.03 557.75L287.131 556.755ZM275.194 555.432C277.182 555.671 279.172 555.9 281.163 556.12L281.053 557.114C279.059 556.893 277.066 556.664 275.075 556.425L275.194 555.432ZM263.274 553.897C265.257 554.171 267.241 554.435 269.228 554.691L269.1 555.683C267.111 555.427 265.123 555.162 263.138 554.888L263.274 553.897ZM251.412 552.152C253.383 552.46 255.358 552.76 257.335 553.051L257.189 554.04C255.209 553.749 253.232 553.449 251.257 553.14L251.412 552.152ZM239.562 550.187C241.54 550.534 243.522 550.872 245.507 551.201L245.344 552.188C243.356 551.858 241.371 551.52 239.39 551.172L239.562 550.187ZM227.734 547.998C229.696 548.381 231.664 548.754 233.635 549.119L233.453 550.103C231.479 549.737 229.508 549.363 227.542 548.98L227.734 547.998ZM216.015 545.597C217.958 546.015 219.906 546.424 221.86 546.824L221.659 547.804C219.702 547.403 217.751 546.993 215.805 546.575L216.015 545.597ZM204.272 542.948C206.23 543.411 208.195 543.864 210.166 544.309L209.946 545.284C207.972 544.839 206.004 544.385 204.042 543.922L204.272 542.948ZM192.6 540.064C194.532 540.563 196.471 541.053 198.416 541.533L198.176 542.504C196.227 542.023 194.285 541.532 192.35 541.032L192.6 540.064ZM181.098 536.961C183 537.496 184.91 538.023 186.827 538.54L186.566 539.505C184.646 538.987 182.732 538.46 180.827 537.924L181.098 536.961ZM169.488 533.551C171.41 534.14 173.341 534.719 175.281 535.289L175 536.248C173.056 535.677 171.121 535.097 169.195 534.507L169.488 533.551ZM158.069 529.904C159.953 530.531 161.847 531.148 163.75 531.756L163.446 532.709C161.539 532.099 159.641 531.481 157.753 530.853L158.069 529.904ZM146.788 525.992C148.663 526.669 150.55 527.337 152.448 527.995L152.121 528.94C150.219 528.28 148.328 527.611 146.448 526.933L146.788 525.992ZM135.464 521.729C137.327 522.46 139.202 523.181 141.089 523.891L140.737 524.827C138.845 524.115 136.966 523.393 135.099 522.66L135.464 521.729ZM124.442 517.223C126.253 517.994 128.077 518.755 129.914 519.506L129.535 520.432C127.694 519.679 125.865 518.916 124.05 518.143L124.442 517.223ZM113.418 512.324C115.252 513.174 117.101 514.013 118.966 514.841L118.56 515.755C116.691 514.925 114.836 514.083 112.998 513.231L113.418 512.324ZM102.611 507.091C104.379 507.985 106.164 508.868 107.965 509.74L107.53 510.64C105.723 509.766 103.933 508.88 102.159 507.984L102.611 507.091ZM92.0922 501.532C93.8286 502.492 95.5839 503.44 97.3574 504.377L96.8904 505.261C95.1114 504.321 93.3506 503.37 91.6085 502.407L92.0922 501.532ZM81.6059 495.458C83.3121 496.494 85.0394 497.518 86.7873 498.531L86.2861 499.396C84.5322 498.38 82.7989 497.352 81.0867 496.312L81.6059 495.458ZM71.6291 489.095C73.2478 490.18 74.8889 491.252 76.552 492.312L76.0143 493.155C74.3451 492.091 72.6976 491.015 71.0726 489.926L71.6291 489.095ZM61.7179 482.094C63.3288 483.295 64.9664 484.483 66.63 485.658L66.0532 486.475C64.3828 485.295 62.7382 484.102 61.1201 482.896L61.7179 482.094ZM52.3783 474.729C53.8796 475.983 55.409 477.224 56.9658 478.451L56.3466 479.236C54.7826 478.003 53.2458 476.756 51.7372 475.496L52.3783 474.729ZM43.3786 466.729C44.8421 468.116 46.3389 469.488 47.8683 470.846L47.2044 471.594C45.6671 470.229 44.1622 468.849 42.6907 467.455L43.3786 466.729ZM35.0046 458.23C36.3313 459.676 37.693 461.107 39.0889 462.523L38.3767 463.225C36.9726 461.8 35.6027 460.361 34.2678 458.906L35.0046 458.23ZM27.2486 449.094C28.4892 450.68 29.7708 452.249 31.0922 453.803L30.3305 454.451C29.0004 452.887 27.7102 451.307 26.4609 449.71L27.2486 449.094ZM20.3038 439.385C21.3767 441.036 22.4926 442.67 23.6504 444.288L22.8372 444.87C21.6709 443.24 20.5466 441.593 19.4654 439.931L20.3038 439.385ZM14.2724 429.069C15.1969 430.845 16.1696 432.603 17.1895 434.344L16.3266 434.849C15.2985 433.094 14.3178 431.321 13.3854 429.531L14.2724 429.069ZM9.31238 418.213C10.0397 420.056 10.8174 421.883 11.6445 423.692L10.735 424.108C9.9007 422.283 9.11601 420.44 8.38217 418.58L9.31238 418.213ZM5.55337 406.916C6.07603 408.835 6.65179 410.737 7.2795 412.622L6.33076 412.938C5.69719 411.036 5.11605 409.116 4.5885 407.179L5.55337 406.916ZM3.06359 395.197C3.36935 397.184 3.73043 399.154 4.14576 401.108L3.16765 401.316C2.74839 399.344 2.38382 397.355 2.07523 395.349L3.06359 395.197ZM1.91741 383.424C2.0006 385.405 2.13741 387.37 2.32677 389.319L1.33143 389.415C1.14028 387.448 1.00224 385.465 0.918295 383.466L1.91741 383.424ZM2.07018 371.35C1.93469 373.394 1.85492 375.422 1.82983 377.435L0.829898 377.422C0.855228 375.392 0.93571 373.346 1.07239 371.284L2.07018 371.35ZM3.42688 359.687C3.10451 361.635 2.83163 363.568 2.60737 365.489L1.61414 365.373C1.84024 363.436 2.11537 361.487 2.4403 359.524L3.42688 359.687ZM5.96139 347.841C5.43778 349.843 4.96532 351.831 4.54317 353.805L3.56529 353.596C3.99064 351.606 4.46659 349.604 4.99396 347.588L5.96139 347.841ZM9.40206 336.585C8.76007 338.424 8.16047 340.252 7.60264 342.07L6.64666 341.776C7.20827 339.946 7.81183 338.106 8.45795 336.255L9.40206 336.585ZM13.7676 325.421C12.9536 327.303 12.1832 329.175 11.4558 331.035L10.5245 330.671C11.2562 328.799 12.0311 326.917 12.8497 325.024L13.7676 325.421ZM18.9339 314.479C18.0321 316.243 17.1679 317.997 16.3409 319.743L15.4372 319.315C16.2686 317.56 17.1372 315.796 18.0435 314.024L18.9339 314.479ZM24.5416 304.233C23.5366 305.957 22.5671 307.673 21.6326 309.381L20.7554 308.901C21.6943 307.185 22.6682 305.461 23.6777 303.729L24.5416 304.233ZM30.9999 293.79C29.8516 295.547 28.7395 297.295 27.6632 299.036L26.8127 298.51C27.8934 296.762 29.01 295.007 30.1629 293.243L30.9999 293.79ZM37.69 284.037C36.5712 285.595 35.4805 287.147 34.4176 288.693L33.5936 288.127C34.6603 286.575 35.7549 285.017 36.8777 283.454L37.69 284.037ZM44.7433 274.612C43.5107 276.195 42.3068 277.772 41.1314 279.343L40.3307 278.744C41.5101 277.168 42.7178 275.586 43.9542 273.998L44.7433 274.612ZM52.4852 265.041C51.1368 266.648 49.8176 268.25 48.5273 269.845L47.7498 269.216C49.0439 267.616 50.3668 266.01 51.7191 264.398L52.4852 265.041ZM60.3056 256.017C59.0349 257.438 57.7869 258.854 56.5613 260.266L55.8062 259.61C57.0351 258.195 58.2864 256.775 59.5602 255.351L60.3056 256.017ZM68.2018 247.438C66.8402 248.877 65.5014 250.311 64.1854 251.741L63.4496 251.064C64.7688 249.631 66.1107 248.193 67.4754 246.75L68.2018 247.438ZM76.6487 238.748C75.1945 240.205 73.7636 241.658 72.3559 243.106L71.6388 242.409C73.0496 240.958 74.4836 239.502 75.9408 238.041L76.6487 238.748ZM85.6508 229.951C84.104 231.426 82.5809 232.896 81.0812 234.361L80.3823 233.646C81.885 232.178 83.4111 230.705 84.9607 229.227L85.6508 229.951ZM93.9908 222.166C92.5644 223.47 91.1562 224.771 89.7662 226.069L89.0838 225.338C90.4763 224.038 91.887 222.735 93.316 221.428L93.9908 222.166ZM102.771 214.297C101.27 215.616 99.7887 216.931 98.3255 218.242L97.6581 217.497C99.1238 216.184 100.608 214.867 102.111 213.546L102.771 214.297ZM111.996 206.346C110.421 207.678 108.865 209.007 107.327 210.332L106.675 209.574C108.214 208.247 109.773 206.916 111.35 205.582L111.996 206.346ZM121.673 198.311C120.022 199.657 118.391 200.999 116.778 202.339L116.139 201.569C117.754 200.228 119.388 198.884 121.041 197.536L121.673 198.311ZM130.628 191.124C129.116 192.318 127.62 193.509 126.139 194.698L125.513 193.918C126.996 192.728 128.495 191.535 130.007 190.339L130.628 191.124ZM139.873 183.927C138.302 185.132 136.746 186.334 135.205 187.533L134.591 186.744C136.134 185.543 137.691 184.34 139.264 183.133L139.873 183.927ZM149.479 176.667C147.848 177.882 146.231 179.095 144.63 180.305L144.028 179.507C145.63 178.296 147.248 177.081 148.882 175.865L149.479 176.667ZM159.45 169.343C157.758 170.569 156.08 171.792 154.419 173.013L153.827 172.207C155.49 170.985 157.169 169.761 158.863 168.534L159.45 169.343ZM169.392 162.237C167.773 163.38 166.167 164.52 164.574 165.658L163.992 164.844C165.587 163.705 167.195 162.564 168.816 161.42L169.392 162.237ZM178.838 155.652C177.24 156.754 175.653 157.853 174.079 158.951L173.507 158.131C175.083 157.032 176.671 155.931 178.271 154.829L178.838 155.652ZM188.579 149.018C186.931 150.128 185.295 151.235 183.672 152.341L183.109 151.515C184.734 150.408 186.371 149.299 188.02 148.188L188.579 149.018ZM198.616 142.334C196.918 143.452 195.233 144.568 193.56 145.682L193.006 144.85C194.68 143.735 196.367 142.618 198.066 141.499L198.616 142.334ZM208.953 135.602C207.205 136.728 205.47 137.853 203.747 138.975L203.201 138.137C204.925 137.014 206.662 135.889 208.411 134.762L208.953 135.602ZM219.462 128.904C217.707 130.011 215.965 131.115 214.235 132.218L213.697 131.375C215.429 130.271 217.173 129.166 218.928 128.058L219.462 128.904ZM229.188 122.826C227.547 123.842 225.916 124.857 224.295 125.87L223.765 125.022C225.387 124.008 227.019 122.993 228.662 121.976L229.188 122.826ZM239.158 116.71C237.476 117.733 235.804 118.754 234.142 119.773L233.62 118.921C235.282 117.9 236.955 116.879 238.639 115.856L239.158 116.71ZM249.373 110.556C247.65 111.585 245.937 112.612 244.235 113.638L243.719 112.781C245.422 111.755 247.136 110.727 248.861 109.697L249.373 110.556ZM259.836 104.363C258.072 105.399 256.317 106.432 254.574 107.464L254.064 106.604C255.809 105.571 257.564 104.537 259.33 103.501L259.836 104.363ZM270.548 98.1326C268.742 99.1742 266.946 100.214 265.161 101.253L264.658 100.388C266.444 99.3492 268.241 98.3086 270.049 97.2664L270.548 98.1326ZM278.748 93.4344C277.829 93.9577 276.912 94.4806 275.998 95.0031L275.502 94.135C276.416 93.6122 277.333 93.089 278.253 92.5654L278.748 93.4344ZM617.018 86.7484L603.342 96.766L594.262 93.189C593.598 92.9278 592.859 92.9407 592.205 93.2249C591.551 93.5091 591.037 94.0413 590.776 94.7045C590.515 95.3676 590.528 96.1074 590.812 96.7611C591.096 97.4147 591.628 97.9287 592.291 98.19L601.372 101.767L604.541 118.421L607.875 119.734L608.916 104.739L617.851 108.259L618.66 114.355L621.161 115.34L622.449 107.182L627.071 100.337L624.57 99.3518L619.823 103.259L610.888 99.7388L620.352 88.0618L617.018 86.7484ZM296.781 295.787L305.835 281.454H309.418L304.892 295.787H314.496L317.481 290.412H320.168L318.376 298.475L320.168 306.537H317.481L314.494 301.162H304.891L309.418 315.495H305.835L296.781 301.162H287.022C286.31 301.162 285.626 300.879 285.122 300.375C284.618 299.871 284.335 299.187 284.335 298.475C284.335 297.762 284.618 297.078 285.122 296.574C285.626 296.07 286.31 295.787 287.022 295.787H296.781ZM308.146 96.9689L308.384 80.0175L316.707 74.922C317.315 74.5499 317.75 73.9514 317.917 73.2584C318.084 72.5654 317.968 71.8346 317.596 71.2267C317.224 70.6188 316.626 70.1836 315.933 70.017C315.24 69.8503 314.509 69.9657 313.901 70.3378L305.578 75.4334L290.372 67.9359L287.316 69.8069L298.662 79.6673L290.471 84.6815L285.117 81.6568L282.825 83.06L288.563 89.0008L291.245 96.8125L293.537 95.4093L293.276 89.2666L301.466 84.2524L305.09 98.8399L308.146 96.9689Z" fill="white"/>
</svg>
