<svg width="13" height="13" viewBox="0 0 13 13" fill="none" xmlns="http://www.w3.org/2000/svg">
<path d="M7.47073 0.721348L12.7788 6.16454C12.8593 6.24701 12.9164 6.33635 12.9501 6.43257C12.9834 6.52879 13 6.63188 13 6.74184C13 6.85181 12.9834 6.9549 12.9501 7.05112C12.9164 7.14733 12.8593 7.23668 12.7788 7.31915L7.47073 12.7623C7.32328 12.9135 7.13911 12.9927 6.9182 12.9999C6.69676 13.0065 6.50562 12.9273 6.34477 12.7623C6.18392 12.6111 6.1 12.4223 6.09303 12.1958C6.0866 11.9687 6.16381 11.7727 6.32466 11.6077L10.2655 7.56657L1.27794 7.56657C1.05007 7.56657 0.858925 7.48767 0.704507 7.32987C0.550626 7.17153 0.473684 6.97552 0.473684 6.74184C0.473684 6.50817 0.550626 6.31244 0.704507 6.15464C0.858925 5.99629 1.05007 5.91712 1.27794 5.91712L10.2655 5.91712L6.32466 1.87596C6.17721 1.72476 6.1 1.53233 6.09303 1.29865C6.0866 1.06498 6.16381 0.872547 6.32466 0.721348C6.47211 0.556402 6.65977 0.473928 6.88764 0.473928C7.11551 0.473928 7.30988 0.556402 7.47073 0.721348Z" fill="#B21E23"/>
</svg>
