<svg width="105" height="123" viewBox="0 0 105 123" fill="none" xmlns="http://www.w3.org/2000/svg">
<path fill-rule="evenodd" clip-rule="evenodd" d="M2.26163 15.2357L10.7142 13.4008C11.2537 13.2837 11.7209 12.9487 12.0049 12.4753L13.1823 10.5131C13.8846 9.34247 15.5274 9.20399 16.4158 10.2405L18.6192 12.8111C19.5831 13.9358 21.3925 13.6588 21.976 12.2974L23.142 9.57672C23.505 8.72958 24.4 8.24023 25.3091 8.39176L28.4037 8.90757C29.2697 9.05193 30.1287 8.61454 30.5214 7.82922L31.5237 5.82453C31.7609 5.35009 32.1769 4.98933 32.6801 4.82159L34.6364 4.16947C34.8404 4.10149 35.0539 4.06684 35.2689 4.06684L37.7752 4.06684C38.5327 4.06684 39.2252 3.63883 39.564 2.96127L40.4919 1.10557C40.8307 0.427983 41.5232 -2.5951e-05 42.2808 1.18013e-09L45.8822 0.000120824C46.0457 0.000126412 46.2086 0.0201815 46.3672 0.0598362L49.3029 0.793754C49.8693 0.935355 50.3456 1.31738 50.6067 1.83958L51.8174 4.26085C52.0785 4.78303 52.5547 5.16506 53.1211 5.30667L59.2974 6.85088C59.9608 7.01674 60.4934 7.51 60.7097 8.1587L61.3792 10.1673L62.3959 13.2172L62.7914 14.7993C63.107 16.0616 62.1523 17.2844 60.8511 17.2844H57.6369C57.4219 17.2844 57.2084 17.319 57.0044 17.387L54.2622 18.3011L51.3468 19.2729C51.2571 19.3028 51.1695 19.3391 51.0849 19.3814L49.1715 20.3381C48.0955 20.8761 47.7345 22.2354 48.4018 23.2363L48.9885 24.1164C49.1143 24.305 49.2712 24.4709 49.4526 24.607L51.4006 26.068C52.3743 26.7982 52.4755 28.2216 51.6148 29.0822L50.7811 29.916C50.406 30.291 50.1953 30.7997 50.1953 31.3302L50.1953 34.5561C50.1953 35.202 50.5072 35.8082 51.0328 36.1836L57.3123 40.6689L60.1041 42.5301C60.2753 42.6443 60.4279 42.7842 60.5565 42.9449L63.9911 47.2382C64.2748 47.5928 64.4294 48.0334 64.4294 48.4876V54.0746C64.4294 54.605 64.6401 55.1138 65.0152 55.4888L68.3957 58.8694C68.4627 58.9363 68.5343 58.9984 68.61 59.0552L75.8685 64.4991C76.3503 64.8604 76.9693 64.9854 77.5535 64.8394L82.2787 63.6581C83.541 63.3425 84.7638 64.2972 84.7638 65.5984V70.0099C84.7638 70.7276 85.1483 71.3903 85.7715 71.7464L91.5702 75.06C91.7757 75.1773 92.0003 75.2574 92.2337 75.2962L102.41 76.9923C103.375 77.1531 104.081 77.9875 104.081 78.9651L104.081 82.3545L104.081 84.2936C104.081 85.9706 102.142 86.9029 100.832 85.8553L99.3116 84.6389C99.1045 84.4732 98.8666 84.3504 98.6116 84.2776L92.1502 82.4314C91.9715 82.3804 91.7865 82.3545 91.6007 82.3545H88.7972C87.6926 82.3545 86.7972 83.2499 86.7972 84.3545L86.7972 87.3224C86.7972 88.025 87.1658 88.676 87.7682 89.0374L90.9098 90.9224C91.5122 91.2838 91.8808 91.9348 91.8808 92.6373V94.4395C91.8808 95.142 91.5122 95.793 90.9098 96.1545L87.7682 98.0394C87.1658 98.4009 86.7972 99.0519 86.7972 99.7544V103.233C86.7972 103.544 86.7249 103.85 86.5861 104.128L85.3166 106.667C84.9778 107.344 84.2852 107.772 83.5277 107.772H79.1356C78.8251 107.772 78.5189 107.845 78.2412 107.984L76.9203 108.644C76.728 108.74 76.5525 108.867 76.4005 109.019L76.1991 109.22C75.824 109.595 75.6133 110.104 75.6133 110.634V111.367C75.6133 111.678 75.541 111.984 75.4022 112.262L74.9671 113.132C74.7298 113.606 74.6908 114.156 74.8585 114.659L75.6133 116.923L76.2391 118.801C76.4787 119.519 76.2916 120.312 75.756 120.847L74.9304 121.673C74.7109 121.892 74.4432 122.058 74.1487 122.156L72.5405 122.692C71.9179 122.899 71.2331 122.788 70.7081 122.395L67.4795 119.973L64.6522 118.088C64.5043 117.99 64.3439 117.911 64.1753 117.855L61.5141 116.968C61.4243 116.938 61.3367 116.902 61.2521 116.859L57.7874 115.127C57.4761 114.971 57.2108 114.737 57.0177 114.448L55.6595 112.41C55.4128 112.04 55.0498 111.763 54.6279 111.622L52.6766 110.972C52.3821 110.874 52.1144 110.708 51.8949 110.489L51.3547 109.949C50.6805 109.274 50.5759 108.218 51.1048 107.425L51.635 106.63C52.0059 106.073 52.6304 105.739 53.2991 105.739L55.0808 105.739C55.2126 105.739 55.3439 105.752 55.4731 105.778L60.1683 106.717C60.2974 106.743 60.4288 106.756 60.5605 106.756H63.8238C64.2187 106.756 64.6047 106.639 64.9332 106.42L66.9757 105.058C67.3042 104.839 67.6902 104.722 68.0851 104.722H71.2219C71.4368 104.722 71.6504 104.688 71.8543 104.62L74.4617 103.751C74.5515 103.721 74.6391 103.684 74.7237 103.642L78.6635 101.672L80.0495 100.748C80.9686 100.135 81.2169 98.8937 80.6042 97.9746L80.2638 97.4639C79.8984 96.916 79.8263 96.2232 80.0709 95.6118L81.3801 92.3389C81.5922 91.8084 81.5674 91.2126 81.312 90.7017L79.9177 87.9131C79.7621 87.6018 79.5278 87.3365 79.2383 87.1435L76.9592 85.6241C76.7419 85.4792 76.4982 85.3783 76.2421 85.3271L73.1542 84.7095C72.2193 84.5225 71.5464 83.7017 71.5464 82.7483V81.1495C71.5464 80.619 71.3357 80.1103 70.9606 79.7353L68.4963 77.2709L65.4461 74.2207L60.9103 70.5921C60.5557 70.3084 60.1151 70.1538 59.6609 70.1538H56.8692C56.4944 70.1538 56.1271 70.0485 55.8092 69.8498L48.639 65.3685C48.327 65.1734 48.0748 64.8961 47.9102 64.5669L46.2735 61.2936C46.1774 61.1014 46.0509 60.9259 45.8989 60.7739L42.3954 57.2703C42.1758 57.0508 41.9082 56.8854 41.6136 56.7872L39.5717 56.1065C39.2059 55.9846 38.8832 55.7596 38.6424 55.4585L35.1435 51.0849C35.0117 50.9201 34.9067 50.7355 34.8326 50.5378L31.8942 42.7024L30.1685 38.388C29.9715 37.8955 29.587 37.5014 29.0994 37.2924L22.7438 34.5686L19.0834 33.1044C18.2437 32.7686 17.2832 33.0379 16.7406 33.7614L14.8048 36.3424C14.6758 36.5144 14.5754 36.706 14.5074 36.91L13.8553 38.8663C13.6876 39.3695 13.3268 39.7855 12.8524 40.0227L10.8158 41.041C10.0458 41.426 9.11588 41.2751 8.50716 40.6664L7.88474 40.0439C7.62842 39.7876 7.44659 39.4665 7.35867 39.1148L6.64853 36.2742C6.53712 35.8286 6.27571 35.4349 5.90824 35.1593L3.74478 33.5367C2.97151 32.9567 2.72366 31.9068 3.15595 31.0422L3.79819 29.7578C4.1832 28.9879 4.0323 28.0579 3.42357 27.4492L0.585807 24.6114C-0.117961 23.9076 -0.197158 22.7935 0.399987 21.9972L1.56046 20.4498C2.06921 19.7715 2.09489 18.846 1.62453 18.1405L1.28953 17.638C0.792397 16.8923 1.02025 15.8823 1.7894 15.4223C1.93563 15.3349 2.09513 15.2718 2.26163 15.2357ZM16.2514 70.1533H21.6752C22.3439 70.1533 22.9683 70.4875 23.3393 71.0439L28.3551 78.5677C28.6677 79.0365 28.768 79.6155 28.6313 80.1621L27.8291 83.3707L26.8124 91.5044L26.1744 94.0564C25.9519 94.9467 25.1519 95.5713 24.2342 95.5713H21.5405C21.0101 95.5713 20.5014 95.782 20.1263 96.1571L20.0929 96.1906C19.3118 96.9716 18.0455 96.9716 17.2645 96.1906L15.5443 94.4704C14.9786 93.9047 14.8044 93.0563 15.1016 92.3134L16.4374 88.9739C16.5733 88.634 16.6134 88.2634 16.5532 87.9023L15.6285 82.354L13.7283 75.7031C13.6407 75.3968 13.6277 75.0739 13.6902 74.7615L14.2902 71.7611C14.4772 70.8262 15.298 70.1533 16.2514 70.1533Z" fill="#FCFEFF"/>
</svg>
